<?xml version="1.0" encoding="UTF-8"?> <svg xmlns="http://www.w3.org/2000/svg" viewBox="0 0 666 250"><title>Career Everywhere</title><path d="M599.29 100.727c10.669-10.678 17.267-25.429 17.267-41.722C616.557 26.417 590.163 0 557.605 0h-205.15c-32.559 0-58.952 26.417-58.952 59.005s26.393 59.004 58.951 59.004h205.151l.039-.001h58.913l-17.266-17.282Z" fill="#c6b0e7"></path><path d="M354.718 86.746c14.432 0 23.345-10.28 24.449-23.79h-5.518c-1.953 5.692-6.791 9.516-14.177 9.516-10.526 0-18.166-8.242-18.166-20.137 0-12.066 7.64-19.373 17.317-19.373 9.338 0 13.668 6.288 14.092 14.53h6.027V29.054c-3.31-1.614-9.507-3.569-19.609-3.569-16.045 0-32.344 10.961-32.344 31.608 0 17.248 11.8 29.653 27.929 29.653Zm70.944-11.215-2.886-.68c-.425 1.274-1.274 2.04-2.377 2.04-1.443 0-1.953-1.02-1.953-2.465l.255-17.248v-.425c0-10.62-8.065-14.02-17.402-14.02-11.376 0-18.252 5.523-18.252 12.49 0 3.484 2.292 6.373 6.282 6.373 3.396 0 5.773-2.209 5.773-5.013 0-1.784-.595-2.549-.595-4.163 0-2.294 1.783-3.994 5.094-3.994s5.263 2.21 5.263 6.203v6.967c-2.971.68-5.688 1.445-8.829 2.38-7.215 2.038-12.563 5.437-12.563 11.895 0 5.777 5.008 10.62 11.714 10.62 5.094 0 8.999-2.888 10.612-7.647h.509c.255 4.844 3.82 7.817 8.489 7.817 8.065 0 10.442-6.712 10.866-11.13Zm-24.024-8.242 3.226-1.02v8.157c-.764 1.02-2.292 2.294-4.329 2.294-2.632 0-4.585-1.614-4.585-4.248 0-2.804 2.208-4.078 5.688-5.183Zm55.36-24.13c-5.263 0-8.744 3.993-9.932 8.156h-.595v-8.157h-4.329c-4.754 1.105-11.46 2.974-16.299 3.909v4.843h1.698c3.311 0 4.924 1.02 4.924 4.673v18.693c0 3.144-.934 4.843-5.264 4.843h-.424v5.438h26.995v-5.438h-1.443c-3.99 0-5.858-.935-5.858-5.268V59.727c0-3.059 1.444-4.163 2.887-4.163 2.461 0 2.886 3.313 8.149 3.313 3.735 0 7.216-2.804 7.216-7.902 0-4.673-2.971-7.817-7.725-7.817Zm46.386 16.398c-.425-9.941-6.792-16.823-17.148-16.823-10.442 0-20.544 8.326-20.544 22.6 0 12.66 8.405 21.412 19.525 21.412 12.903 0 17.572-11.555 17.997-17.928h-4.16c-1.443 3.314-4.499 5.523-9.338 5.523-7.64 0-12.394-5.778-12.394-12.745h25.977c.085-.68.085-1.36.085-2.04Zm-11.291-3.144h-14.431c.594-4.333 3.65-7.222 7.64-7.222 4.414 0 6.706 3.484 6.791 7.222Zm52.618 3.144c-.424-9.941-6.791-16.823-17.148-16.823-10.441 0-20.543 8.326-20.543 22.6 0 12.66 8.404 21.412 19.525 21.412 12.903 0 17.572-11.555 17.997-17.928h-4.16c-1.443 3.314-4.499 5.523-9.338 5.523-7.64 0-12.394-5.778-12.394-12.745h25.976c.085-.68.085-1.36.085-2.04Zm-11.29-3.144H518.99c.594-4.333 3.65-7.222 7.64-7.222 4.414 0 6.706 3.484 6.791 7.222Zm44.824-13.255c-5.263 0-8.744 3.994-9.932 8.157h-.594v-8.157h-4.33c-4.754 1.105-11.46 2.974-16.299 3.909v4.843h1.698c3.311 0 4.924 1.02 4.924 4.673v18.693c0 3.144-.934 4.843-5.264 4.843h-.424v5.438h26.995v-5.438h-1.443c-3.99 0-5.857-.935-5.857-5.268V59.727c0-3.059 1.443-4.163 2.886-4.163 2.462 0 2.886 3.313 8.149 3.313 3.735 0 7.216-2.804 7.216-7.902 0-4.673-2.971-7.817-7.725-7.817Z" fill="#19132d"></path><path d="M108.395 0C75.837 0 49.444 26.417 49.444 59.005c0 16.293 6.598 31.044 17.266 41.722l-17.266 17.282h175.675c32.558 0 58.952-26.417 58.952-59.004S257.677 0 225.119 0H108.395Z" fill="#ff5a51" fill-rule="evenodd"></path><path d="m179.093 0-.62 6.679c-.022.264.132.462.462.594.352.133.715.199 1.09.199.044 0 .099-.077.165-.232.066-.154.121-.341.165-.561a4.26 4.26 0 0 0 .132-.793c.044-.309.066-.606.066-.893a97.597 97.597 0 0 1 2.311-3.568c.333-.491.703-.961 1.083-1.425h-1.702a50.9 50.9 0 0 0-1.692 2.713c.094-.952.178-1.855.253-2.713h-1.713ZM227.07.433c.199.64.43 1.311.694 2.016.286.683.605 1.322.957 1.917a6.08 6.08 0 0 0 1.255 1.42c.462.353.99.529 1.584.529.727 0 1.475-.308 2.245-.925s1.552-1.388 2.344-2.313c.46-.55.93-1.14 1.406-1.75a58.813 58.813 0 0 0-1.668-.328c-.155.196-.31.403-.464.59-.683.838-1.343 1.532-1.98 2.082s-1.234.826-1.784.826c-.616 0-1.144-.363-1.584-1.09-.44-.727-.815-1.586-1.123-2.577-.073-.235-.132-.472-.199-.708a59.821 59.821 0 0 0-1.795-.076c.038.13.071.251.112.387ZM161.296 0h-2.41c-.57.44-1.15.856-1.749 1.226A8.89 8.89 0 0 1 157.282 0h-1.616c-.134.602-.213 1.17-.213 1.69 0 1.85.45 3.292 1.353 4.328.903 1.035 2.113 1.553 3.632 1.553 1.298 0 2.608-.22 3.928-.661a22.153 22.153 0 0 0 3.896-1.785 30.947 30.947 0 0 0 3.697-2.478A55.314 55.314 0 0 0 175.04 0h-1.886a41.341 41.341 0 0 1-1.988 1.623 27.442 27.442 0 0 1-3.367 2.18 18.087 18.087 0 0 1-3.566 1.52c-1.21.375-2.432.563-3.664.563-.836 0-1.563-.265-2.18-.793-.593-.551-.978-1.333-1.154-2.346a30.917 30.917 0 0 0 2.773-1.752c.456-.326.884-.658 1.287-.995ZM215.516 1.49c.11 1.102.253 2.127.429 3.074s.385 1.751.627 2.412c.264.66.573 1.035.925 1.123.176.044.495-.165.957-.628.462-.484.99-1.1 1.585-1.85.594-.749 1.221-1.564 1.881-2.445.683-.903 1.31-1.751 1.882-2.544.166-.228.312-.423.466-.632h-2.146l-.003.004c-.617.881-1.2 1.707-1.75 2.478a83.259 83.259 0 0 1-1.42 2.016c-.418.572-.715.914-.891 1.024-.242-.573-.429-1.256-.561-2.049s-.231-1.63-.297-2.51c-.024-.321-.03-.642-.048-.963h-1.77c.04.487.084.981.134 1.49ZM185.315 118.009h1.584c.18-.83.379-1.732.608-2.743a146.7 146.7 0 0 1 .99-3.866c.044-.286.077-.573.099-.859.044-.309-.088-.452-.396-.43h-.627c-.177 0-.375.32-.595.958-.132.37-.268.81-.408 1.307-.405.407-.831.85-1.303 1.37-.66.727-1.353 1.476-2.08 2.247-.614.672-1.252 1.344-1.9 2.016h1.965c.303-.342.604-.683.893-1.025a53.736 53.736 0 0 0 1.828-2.212 84.777 84.777 0 0 0-.414 1.915c-.085.453-.162.878-.244 1.322ZM171.038 116.389a53.8 53.8 0 0 0-.693-2.941c-.22-.903-.473-1.652-.759-2.246-.286-.595-.66-.893-1.122-.893-.595 0-1.255.287-1.981.86-.727.55-1.453 1.266-2.179 2.147a27.173 27.173 0 0 0-2.113 2.974c-.364.577-.703 1.15-1.023 1.719h1.777c.07-.11.132-.22.203-.331a28.064 28.064 0 0 1 1.651-2.379c.572-.727 1.122-1.311 1.651-1.751.528-.463.99-.694 1.386-.694v.231a11.99 11.99 0 0 0-.759 1.09c-.308.485-.627.981-.957 1.487a59.92 59.92 0 0 0-.859 1.454c-.252.422-.419.714-.51.893h1.615l.117-.199c.506-.881.957-1.619 1.353-2.214.418-.617.76-.958 1.024-1.024.11.242.22.65.33 1.223.11.572.253 1.211.429 1.916.027.095.065.202.093.298h1.761a27.107 27.107 0 0 1-.435-1.62ZM278.253 75.501a130.268 130.268 0 0 0-8.055 4.362c.176-.727.308-1.454.396-2.18.11-.728.165-1.466.165-2.215 0-.308-.022-.727-.066-1.255a7.454 7.454 0 0 0-.231-1.586c-.11-.529-.297-.98-.561-1.355-.243-.397-.595-.595-1.057-.595-.704 0-1.54.265-2.509.793-.398.223-.79.485-1.18.758-.075-.01-.143-.03-.225-.03-.36.316-.771.717-1.207 1.157-.053.047-.108.083-.161.131-.509.459-.961.95-1.382 1.46-.484.504-.982 1.024-1.51 1.58a94.238 94.238 0 0 1-2.541 2.643c-.858.882-1.706 1.675-2.542 2.38s-1.63 1.288-2.377 1.75c-.726.441-1.364.661-1.915.661-.484 0-.87-.264-1.155-.792-.264-.551-.495-1.234-.693-2.05a49.66 49.66 0 0 1-.561-2.643 18.027 18.027 0 0 0-.628-2.643c-.264-.815-.616-1.487-1.056-2.016-.44-.55-1.024-.826-1.75-.826-.484 0-.98.177-1.485.529-.507.352-1.013.815-1.52 1.388a21.572 21.572 0 0 0-1.452 1.95c-.462.704-.913 1.41-1.353 2.114-.418.705-.814 1.388-1.19 2.049a27.547 27.547 0 0 1-.99 1.586c.023-.287.078-.75.166-1.388.11-.639.253-1.42.429-2.346.198-.925.43-1.972.694-3.14.286-1.189.616-2.477.99-3.865.044-.287.077-.573.099-.86.044-.308-.088-.45-.396-.429h-.627c-.176 0-.375.32-.595.958-.076.213-.154.455-.232.71-.14.015-.285.048-.438.117-.176.088-.341.22-.495.396a59.716 59.716 0 0 1-2.18 2.61 44.07 44.07 0 0 1-2.673 2.71 40.453 40.453 0 0 1-3.103 2.61 27.465 27.465 0 0 1-3.368 2.181 18.059 18.059 0 0 1-3.565 1.52c-1.21.375-2.432.562-3.664.562-.837 0-1.563-.264-2.18-.793-.593-.55-.98-1.333-1.155-2.346a30.635 30.635 0 0 0 2.773-1.751 19.295 19.295 0 0 0 2.443-2.05c.705-.726 1.266-1.464 1.684-2.213.44-.749.66-1.498.66-2.247 0-.925-.198-1.553-.594-1.883-.396-.33-.99-.496-1.783-.496-.55 0-1.111.154-1.683.463-.55.308-1.09.716-1.618 1.222-.506.507-.98 1.09-1.42 1.752a18.89 18.89 0 0 0-1.188 2.048c-.33.705-.594 1.421-.792 2.148a8.09 8.09 0 0 0-.264 1.95c0 1.85.45 3.293 1.353 4.328.903 1.035 2.113 1.553 3.632 1.553 1.298 0 2.608-.22 3.928-.66a22.153 22.153 0 0 0 3.896-1.785 30.948 30.948 0 0 0 3.697-2.478 54.77 54.77 0 0 0 3.334-2.875A46.806 46.806 0 0 0 236 76.03c.527-.582.982-1.1 1.404-1.586-.2.834-.4 1.725-.601 2.71-.22 1.167-.43 2.302-.627 3.403-.176 1.08-.32 2.06-.43 2.941-.11.881-.165 1.509-.165 1.883v.364c.022.154.055.308.099.462.044.133.11.254.198.364a.67.67 0 0 0 .43.132c.198 0 .385-.099.56-.297.177-.199.33-.43.463-.694.154-.265.297-.518.429-.76.132-.265.242-.452.33-.562.264-.396.584-.903.958-1.52l1.254-1.95c.44-.704.892-1.41 1.354-2.114.484-.705.957-1.333 1.419-1.884.462-.572.892-1.035 1.288-1.387.418-.353.78-.529 1.089-.529.462 0 .826.264 1.09.793.286.529.517 1.19.693 1.983.198.793.374 1.663.528 2.61.176.925.396 1.784.66 2.577.264.793.606 1.454 1.024 1.983.418.528.968.793 1.65.793.595 0 1.442-.353 2.542-1.058 1.101-.726 2.322-1.674 3.665-2.841a82.445 82.445 0 0 0 3.112-2.933c.024.332.095.67.241 1.016.176.419.506.628.99.628.727 0 1.486-.253 2.278-.76a13.924 13.924 0 0 0 2.278-1.85 15.177 15.177 0 0 0 1.849-2.214c.528-.771.869-1.399 1.023-1.884.066.133.11.32.132.562.022.22.033.474.033.76 0 .309-.011.65-.033 1.025v1.09c0 .529-.055 1.068-.165 1.62l-.297 1.42-.165.496a95.237 95.237 0 0 0-5.711 3.8c-1.783 1.3-3.356 2.62-4.721 3.965-1.343 1.365-2.41 2.742-3.202 4.13-.793 1.388-1.189 2.764-1.189 4.13 0 .705.209 1.234.627 1.586.397.375.936.562 1.618.562.352 0 .737-.1 1.156-.297a6.142 6.142 0 0 0 1.254-.727c.44-.287.869-.606 1.288-.959.418-.352.814-.693 1.188-1.024.044-.044.231-.253.561-.628.352-.374.782-.88 1.288-1.52a43.436 43.436 0 0 0 1.683-2.213 34.32 34.32 0 0 0 1.849-2.81 35.216 35.216 0 0 0 1.816-3.27 27.14 27.14 0 0 0 1.518-3.602 172.565 172.565 0 0 1 8.056-4.296 410.446 410.446 0 0 0 4.025-2.026c.206-.702.408-1.406.588-2.119a355.314 355.314 0 0 0-4.019 1.998Zm-62.555 1.884c.396-.925.858-1.73 1.386-2.412.528-.705 1.079-1.256 1.651-1.652.594-.419 1.111-.628 1.551-.628.242 0 .418.099.529.297a.968.968 0 0 1 .198.595c0 .507-.176 1.057-.529 1.652-.33.573-.77 1.157-1.32 1.751s-1.189 1.179-1.915 1.752c-.704.572-1.43 1.09-2.179 1.553a8.686 8.686 0 0 1 .628-2.908Zm52.321-4.494c-.066.375-.319.892-.759 1.553-.441.661-.958 1.31-1.552 1.95s-1.222 1.2-1.882 1.685c-.638.462-1.188.694-1.65.694-.089 0-.133-.11-.133-.33 0-.607.195-1.203.572-1.79a87.68 87.68 0 0 0 1.762-1.939c.601-.487 1.22-.923 1.859-1.294.704-.419 1.31-.727 1.816-.925l-.033.396Zm-1.915 13.35a46.253 46.253 0 0 1-1.915 3.171 43.225 43.225 0 0 1-2.046 2.941 27.194 27.194 0 0 1-2.047 2.412c-.639.705-1.244 1.256-1.816 1.652-.55.419-1.023.628-1.42.628-.572 0-1.001-.066-1.287-.198 0-1.278.308-2.522.924-3.734.617-1.212 1.464-2.39 2.542-3.536 1.101-1.145 2.388-2.257 3.863-3.337a62.979 62.979 0 0 1 4.82-3.205 39.893 39.893 0 0 1-1.618 3.205ZM197.641 118.008a17.899 17.899 0 0 0-.627-2.643c-.264-.815-.616-1.487-1.056-2.016-.44-.55-1.024-.826-1.75-.826-.484 0-.979.177-1.485.529-.507.352-1.013.815-1.519 1.388a21.575 21.575 0 0 0-1.453 1.949c-.354.54-.695 1.08-1.036 1.62h1.934c.401-.567.796-1.094 1.182-1.554.462-.572.892-1.035 1.288-1.387.418-.353.781-.529 1.09-.529.461 0 .824.264 1.09.793.285.53.516 1.189.692 1.982.055.22.105.462.156.695h1.494v-.001ZM225.325 99.372c0-.044-.044-.088-.132-.132-.286.044-.572.121-.858.232s-.496.341-.628.693c-.242 1.256-.693 2.721-1.353 4.395a57.026 57.026 0 0 1-2.311 5.155 78.161 78.161 0 0 1-2.938 5.286 54.824 54.824 0 0 1-1.962 3.008h2.062a67.913 67.913 0 0 0 1.782-2.809 75.218 75.218 0 0 0 2.476-4.494 61.768 61.768 0 0 0 2.013-4.362c.595-1.409 1.057-2.698 1.387-3.866.33-1.189.495-2.169.495-2.94 0-.088-.01-.144-.033-.166ZM108.395 118.009h1.68c.046-.535.088-1.058.126-1.554.132-1.476.286-2.929.462-4.361-.022-.331-.11-.551-.264-.661-.154-.132-.363-.198-.627-.198-.198 0-.385.011-.561.033-.154.022-.243.187-.265.495l-.01.099c-.033.012-.065.019-.1.034-.175.088-.34.22-.494.396a58.842 58.842 0 0 1-2.18 2.61 43.514 43.514 0 0 1-2.673 2.71c-.145.135-.301.264-.449.397h1.846a46.733 46.733 0 0 0 2.4-2.446 100.35 100.35 0 0 0 1.46-1.653l-.38 4.099h.029ZM102.497 1.326c.286.749.627 1.442 1.024 2.081a5.993 5.993 0 0 0 1.518 1.553c.594.397 1.299.595 2.113.595.66 0 1.365-.21 2.113-.628.77-.44 1.551-.991 2.344-1.652a26.266 26.266 0 0 0 2.41-2.313c.304-.32.595-.641.887-.962h-2.01a31.23 31.23 0 0 1-1.914 1.788c-.705.617-1.387 1.113-2.047 1.487-.661.375-1.255.562-1.783.562-.748 0-1.365-.298-1.849-.892-.484-.595-.891-1.344-1.22-2.247-.061-.165-.112-.342-.17-.511-.577.043-1.156.08-1.728.14.105.335.193.651.312.998ZM117.968 0l-.62 6.679c-.022.264.132.462.462.594.352.133.715.199 1.089.199.044 0 .099-.077.165-.232.066-.154.121-.341.165-.561a4.26 4.26 0 0 0 .132-.793c.044-.309.066-.606.066-.893a100.324 100.324 0 0 1 2.311-3.568c.334-.491.704-.961 1.084-1.425h-1.703a51.69 51.69 0 0 0-1.692 2.713c.094-.952.178-1.855.254-2.713h-1.713ZM135.452 0c-.133.602-.213 1.17-.213 1.69 0 1.85.451 3.292 1.354 4.328.902 1.035 2.112 1.553 3.631 1.553 1.298 0 2.608-.22 3.928-.661a22.124 22.124 0 0 0 3.896-1.785 30.947 30.947 0 0 0 3.697-2.478A55.35 55.35 0 0 0 154.827 0h-1.886a40.96 40.96 0 0 1-1.988 1.623 27.442 27.442 0 0 1-3.367 2.18 18.087 18.087 0 0 1-3.566 1.52c-1.21.375-2.432.563-3.664.563-.836 0-1.563-.265-2.179-.793-.594-.551-.979-1.333-1.155-2.346a30.902 30.902 0 0 0 2.773-1.752c.456-.326.885-.658 1.288-.995h-2.41c-.57.441-1.151.856-1.75 1.227.018-.417.071-.825.145-1.227h-1.616ZM85.042 118.009h1.59c.095-.37.207-.735.35-1.091.397-.925.86-1.729 1.387-2.412.529-.705 1.079-1.256 1.651-1.652.594-.419 1.111-.628 1.552-.628.242 0 .418.099.528.297a.97.97 0 0 1 .198.595c0 .507-.176 1.057-.528 1.652a9.836 9.836 0 0 1-1.32 1.751c-.467.504-1.011 1-1.604 1.488h2.318c.168-.155.35-.306.507-.463.704-.727 1.265-1.465 1.683-2.214.44-.75.66-1.498.66-2.247 0-.925-.197-1.553-.594-1.883-.396-.331-.99-.496-1.782-.496-.55 0-1.112.154-1.684.463-.45.252-.89.587-1.325.972a88.401 88.401 0 0 0-4.69 2.96 73.019 73.019 0 0 0-3.797 2.676c-.103.075-.206.156-.309.232h2.33c.667-.488 1.314-.951 1.94-1.388a77.275 77.275 0 0 1 2.224-1.53c-.212.36-.412.727-.599 1.1a13.37 13.37 0 0 0-.686 1.818ZM63.066 69.323c.242-.53.572-1.19.99-1.983.418-.815.958-1.84 1.618-3.073.066-.154.132-.33.198-.529.066-.198.1-.385.1-.561 0-.199-.045-.364-.133-.496s-.253-.198-.495-.198c-.462 0-.891.22-1.288.66-.396.42-.759.959-1.09 1.62-.33.66-.637 1.365-.923 2.114a127.77 127.77 0 0 0-.727 2.115c-.22.661-.418 1.212-.594 1.652-.154.419-.297.628-.43.628h-2.805c-.308 0-.55.1-.726.297a.922.922 0 0 0-.232.628c0 .22.044.397.132.529.11.11.232.198.364.264.132.088.297.144.495.166h.627c.286 0 .572-.012.858-.034.33-.022.683-.044 1.057-.066-.028.188-.066.413-.106.649a75.88 75.88 0 0 1-1.922 1.4 193.21 193.21 0 0 1-3.598 2.478c-.536.352-1.092.703-1.636 1.055.158.45.322.896.491 1.34.953-.651 1.877-1.297 2.762-1.932 1.013-.727 1.915-1.377 2.708-1.95l.875-.615c-.089.496-.178 1.004-.268 1.54-.132.771-.242 1.52-.33 2.247a15.613 15.613 0 0 0-.132 1.818c0 .55.022 1.046.066 1.486.066.419.165.827.297 1.223.132.375.309.749.529 1.123.22.353.484.738.792 1.157.176.154.352.297.528.43.198.132.407.198.627.198.44 0 .837-.143 1.189-.43.374-.308.693-.617.957-.925a.921.921 0 0 0-.198-.562c-.11-.176-.253-.264-.43-.264-.22 0-.44.1-.66.297-.22.199-.461.298-.726.298-.308 0-.55-.188-.726-.562a6.397 6.397 0 0 1-.363-1.289 10.792 10.792 0 0 1-.165-1.387 24.37 24.37 0 0 1-.033-.926c0-.528.044-1.145.132-1.85.088-.727.198-1.454.33-2.18.154-.75.308-1.466.462-2.149l.151-.594c.22-.155.364-.298.43-.43a.88.88 0 0 0 .099-.396.639.639 0 0 0-.218-.362v-.002l12.743-.231c.265 0 .474-.044.628-.132.154-.11.23-.342.23-.694 0-.22-.065-.364-.197-.43a.757.757 0 0 0-.43-.132h-5.843c-.748-.066-1.463-.1-2.146-.1-.66-.021-1.31-.032-1.947-.032h-2.542c0-.176.044-.408.132-.694.088-.308.242-.716.462-1.223ZM279.501 43.7a5.34 5.34 0 0 1-.99-1.52 20.945 20.945 0 0 1-.66-1.982 14.02 14.02 0 0 0-.627-1.983c-.242-.617-.562-1.123-.958-1.52-.396-.418-.924-.627-1.584-.627a2.98 2.98 0 0 0-1.684.528 7.9 7.9 0 0 0-1.486 1.289 20.27 20.27 0 0 0-1.32 1.685l-1.123 1.685c-.352.529-.671.97-.957 1.322-.286.33-.54.496-.76.496-.44 0-.77-.232-.99-.694-.22-.463-.396-1.036-.528-1.718a30.506 30.506 0 0 1-.33-2.247 15.828 15.828 0 0 0-.396-2.247c-.154-.705-.385-1.289-.693-1.751-.286-.463-.694-.694-1.222-.694-.33 0-.65.12-.957.363-.308.22-.594.485-.86.793-.263.287-.505.573-.725.86-.198.286-.341.495-.43.627a41.989 41.989 0 0 0-1.881 2.61l-1.716 2.578a131.26 131.26 0 0 1-1.288 1.982c-.352.507-.594.76-.726.76s-.21-.176-.231-.528c-.022-.375.022-.86.132-1.454.198-1.41.385-2.589.56-3.536a2110.277 2110.277 0 0 1 .958-4.659c.154-.639.297-1.355.43-2.148a1.21 1.21 0 0 0-.331-.693c-.176-.177-.418-.265-.726-.265-.22 0-.44.11-.66.33a1.302 1.302 0 0 0-.363.76c-.066.397-.132.86-.198 1.388a96.588 96.588 0 0 1-.231 1.653 145.2 145.2 0 0 0-.265 1.784 45.455 45.455 0 0 1-.231 1.817 303.327 303.327 0 0 0-.594 4.329c-.044.308-.11.672-.198 1.09a8.261 8.261 0 0 0-.1 1.289c0 .485.078.903.232 1.256.176.352.506.528.99.528.243 0 .595-.275 1.057-.826a26.128 26.128 0 0 0 1.618-2.081c.594-.838 1.21-1.74 1.848-2.71.638-.97 1.244-1.872 1.816-2.71a34.9 34.9 0 0 1 1.519-2.081c.462-.573.792-.87.99-.892.352 0 .616.22.792.66.198.441.352.992.462 1.653.132.66.253 1.376.364 2.147.132.771.297 1.487.495 2.148.22.661.506 1.212.858 1.652.374.44.88.661 1.519.661.352 0 .726-.176 1.122-.528a9.866 9.866 0 0 0 1.189-1.29c.418-.528.836-1.1 1.254-1.717a29.82 29.82 0 0 1 1.288-1.685c.418-.53.825-.97 1.22-1.322.397-.353.77-.529 1.123-.529.44 0 .793.21 1.057.628.286.396.539.892.759 1.487.22.595.44 1.255.66 1.982.22.705.496 1.355.826 1.95.33.595.726 1.101 1.188 1.52.484.396 1.1.595 1.849.595.545 0 1.161-.16 1.841-.46-.11-.468-.211-.938-.332-1.402-.36.135-.69.21-.981.21-.704 0-1.265-.199-1.684-.595ZM66.508 117.678c-.33-.485-.495-1.123-.495-1.916 0-.617.098-1.19.297-1.72.22-.55.33-1.133.33-1.75 0-.099-.018-.197-.045-.296l.005-.001c.176 0 .33-.033.462-.1.132-.066.198-.22.198-.462s-.055-.386-.165-.43c-.088-.066-.22-.1-.396-.1-1.1 0-2.267.078-3.5.233-1.21.154-2.42.33-3.63.528-1.189.176-2.344.342-3.467.496-.318.044-.61.067-.913.098l-1.741 1.743c.136-.023.323-.052.574-.09.44-.066.98-.143 1.618-.231.66-.11 1.386-.22 2.179-.331.792-.11 1.595-.231 2.41-.363 1.492-.226 3.134-.48 4.915-.76a3.373 3.373 0 0 0-.419.925c-.11.397-.187.815-.231 1.256-.022.418-.033.782-.033 1.09 0 .573.066 1.135.198 1.685.086.294.197.567.323.827h1.843a1.44 1.44 0 0 1-.317-.331ZM212.2 72.23c.11 0 .165-.022.165-.066.022-.198-.033-.352-.165-.462a1.242 1.242 0 0 0-.495-.298 2.34 2.34 0 0 0-.562-.132 1.846 1.846 0 0 0-.495 0c-1.827.308-3.411.815-4.754 1.52-1.342.705-2.52 1.531-3.532 2.478a19.714 19.714 0 0 0-2.641 3.106 51.49 51.49 0 0 0-2.146 3.404c.176-1.785.319-3.404.429-4.858.132-1.476.286-2.93.462-4.361-.022-.33-.11-.551-.264-.661-.154-.132-.363-.198-.627-.198-.198 0-.385.01-.561.033-.154.022-.242.187-.264.495l-1.255 13.515c-.022.264.132.462.462.594.353.133.716.199 1.09.199.044 0 .099-.077.165-.232.066-.154.121-.341.165-.561a4.26 4.26 0 0 0 .132-.793c.044-.309.066-.606.066-.892.748-1.212 1.519-2.402 2.311-3.57s1.717-2.257 2.773-3.27c1.078-1.036 2.344-1.96 3.796-2.776 1.475-.837 3.258-1.53 5.349-2.081.154-.089.286-.133.396-.133ZM61.743 33.226c.264 0 .473-.044.627-.132.155-.11.232-.342.232-.694 0-.22-.066-.364-.198-.43a.759.759 0 0 0-.43-.132h-5.843c-.021-.002-.04 0-.061-.003-.26.501-.526.999-.772 1.508l6.445-.117ZM76.114 117.81a5.346 5.346 0 0 0-.264-1.289c-.132-.374-.319-.671-.561-.892-.22-.242-.506-.363-.858-.363-.528 0-1.046.165-1.552.496-.506.33-1.012.693-1.518 1.09a24.11 24.11 0 0 1-1.552 1.057c-.058.038-.117.066-.176.1h2.471c.212-.13.443-.278.643-.397.484-.286.902-.43 1.255-.43.286 0 .473.21.56.628.017.06.023.135.037.199h1.524c-.005-.064-.003-.136-.009-.199ZM245.793 113.977c.22-.815.363-1.377.429-1.685.088-.33.132-.595.132-.793.022-.198.011-.341-.033-.43-.022-.11-.066-.176-.132-.198a.623.623 0 0 0-.198-.033c-.199 0-.364.022-.496.066-.11.022-.22.099-.33.232a4.133 4.133 0 0 0-.297.56c-.088.244-.209.574-.363.993-.11.264-.264.76-.462 1.486-.066.24-.134.513-.202.778a58.63 58.63 0 0 0 1.875-.654c.025-.103.052-.222.077-.322ZM211.79 115.762c.66-.727 1.254-1.311 1.782-1.752.595-.506 1.156-.881 1.684-1.123.528-.265.99-.474 1.387-.628.396-.154.704-.286.924-.397.242-.132.363-.33.363-.594 0-.375-.088-.573-.264-.595-.154-.044-.396-.066-.726-.066-.594 0-1.277.187-2.047.562-.337.164-.68.367-1.026.586-.061-.007-.115-.025-.181-.025-.204.18-.432.4-.66.618-.17.127-.338.234-.51.374a21.69 21.69 0 0 0-2.344 2.213 22.197 22.197 0 0 0-1.517 1.927c-.362.382-.729.765-1.103 1.147h2.454a22.69 22.69 0 0 1 1.784-2.247ZM90.81 5.886c0 .154.023.341.067.561.066.199.154.386.264.562.11.176.23.33.363.463.154.132.33.198.528.198.484 0 1.013-.275 1.585-.826.572-.573 1.144-1.278 1.716-2.115a29.289 29.289 0 0 0 1.717-2.742c.196-.34.383-.662.572-.986-.62.114-1.236.235-1.848.369-.217.358-.448.734-.705 1.145a20.808 20.808 0 0 1-.924 1.454c-.308.44-.594.815-.858 1.124-.264.286-.474.429-.628.429h-.23c0-.374.131-.903.395-1.586.241-.642.554-1.346.922-2.098-.636.163-1.262.35-1.89.533-.22.494-.415.973-.583 1.433-.308.881-.462 1.575-.462 2.082ZM114.856 116.753c1.078-1.036 2.344-1.961 3.796-2.776 1.475-.837 3.258-1.531 5.348-2.081.154-.089.286-.133.396-.133.111 0 .166-.022.166-.066.022-.198-.033-.352-.166-.462a1.244 1.244 0 0 0-.495-.298 2.321 2.321 0 0 0-.561-.132 1.846 1.846 0 0 0-.495 0c-1.827.308-3.411.815-4.754 1.52-1.343.705-2.52 1.531-3.532 2.478a19.675 19.675 0 0 0-2.641 3.106c-.023.033-.043.067-.066.1h1.82c.38-.428.763-.853 1.184-1.256ZM127.109 116.588c0-.551.176-1.113.528-1.686a7.604 7.604 0 0 1 1.354-1.553 7.47 7.47 0 0 1 1.684-1.123c.594-.286 1.133-.43 1.617-.43-.11.066-.253.22-.429.463-.154.22-.231.408-.231.562 0 .132.066.242.198.33a.821.821 0 0 0 .363.099c.264 0 .484-.066.66-.198a1.23 1.23 0 0 0 .397-.496c.11-.198.187-.418.231-.66a4.07 4.07 0 0 0 .066-.727c0-.507-.198-.827-.595-.959a3.858 3.858 0 0 0-1.287-.198c-.77 0-1.53.264-2.278.793a9.068 9.068 0 0 0-1.981 1.917 12.043 12.043 0 0 0-1.419 2.478c-.352.859-.528 1.63-.528 2.313 0 .163.022.33.045.496h1.756a7.21 7.21 0 0 1-.151-1.421ZM53.34 118.009c.102-.609.154-1.215.154-1.818 0-.636-.084-1.305-.237-1.998l-1.25 1.25c.028.269.068.532.068.814 0 .588-.06 1.171-.166 1.752h1.431ZM144.968 72.726c-.154.22-.231.407-.231.562 0 .132.066.242.198.33a.82.82 0 0 0 .363.1c.264 0 .485-.067.66-.2a1.24 1.24 0 0 0 .397-.495c.11-.198.187-.418.23-.66.045-.243.067-.485.067-.727 0-.507-.198-.827-.594-.959a3.858 3.858 0 0 0-1.288-.198c-.77 0-1.53.264-2.278.793a9.032 9.032 0 0 0-1.98 1.917c-.305.41-.577.838-.825 1.279-.593.649-1.2 1.308-1.844 1.992-.704.77-1.431 1.542-2.18 2.313s-1.485 1.465-2.211 2.081c-.704.617-1.386 1.113-2.047 1.487-.66.375-1.254.562-1.782.562-.75 0-1.365-.297-1.85-.892-.483-.595-.89-1.344-1.221-2.247a25.158 25.158 0 0 1-.858-2.908 53.456 53.456 0 0 0-.693-2.94c-.22-.904-.473-1.653-.76-2.247-.286-.595-.66-.893-1.122-.893-.594 0-1.254.287-1.981.86-.368.278-.735.6-1.103.963l-.013-.005c-.088-.022-.253.11-.495.396-.22.265-.506.639-.858 1.124-.205.281-.43.592-.664.919l-.21.293-.315.44a43.965 43.965 0 0 1-1.353 1.883 38.801 38.801 0 0 0-1.684 2.313c-.55.793-1.1 1.531-1.651 2.214-.55.66-1.1 1.212-1.65 1.652-.53.419-1.046.628-1.552.628-1.078 0-2.003-.253-2.773-.76a7.207 7.207 0 0 1-1.915-1.916 14.175 14.175 0 0 1-1.353-2.479l-.991-2.478c-.308-.77-.616-1.41-.924-1.916-.308-.507-.66-.76-1.056-.76-.463 0-1.035.242-1.717.727a21.739 21.739 0 0 0-2.212 1.75c-.77.706-1.54 1.477-2.311 2.314-.77.815-1.475 1.564-2.113 2.247l-1.519 1.685c-.374.44-.56.639-.56.595.131-1.983.44-3.965.924-5.948a120.179 120.179 0 0 1 1.551-5.75c.55-1.85 1.068-3.579 1.552-5.187.506-1.63.825-3.062.957-4.295.044-.441-.033-.816-.23-1.124-.177-.308-.496-.463-.958-.463-.044 0-.165.298-.363.893-.176.572-.408 1.354-.694 2.346-.286.969-.605 2.092-.957 3.37a193.543 193.543 0 0 0-1.057 3.932l-1.056 4.097c-.33 1.344-.627 2.6-.891 3.767a126.652 126.652 0 0 0-.66 3.073c-.155.881-.232 1.509-.232 1.884 0 .088.011.264.033.528.044.265.11.54.198.826.11.265.243.507.397.727a.846.846 0 0 0 .66.298c.22 0 .572-.254 1.056-.76a45.334 45.334 0 0 0 1.684-1.884 96.982 96.982 0 0 0 2.08-2.445 36.02 36.02 0 0 1 2.245-2.478 19.587 19.587 0 0 1 2.146-1.883c.704-.507 1.32-.76 1.848-.76.199 0 .397.242.595.727.198.484.429 1.09.693 1.817.286.727.627 1.509 1.023 2.346.397.837.88 1.619 1.453 2.346a7.492 7.492 0 0 0 2.08 1.817c.814.485 1.77.727 2.872.727.638 0 1.265-.154 1.882-.462a8.433 8.433 0 0 0 1.848-1.322c.237-.22.474-.465.711-.712-.17.583-.255 1.063-.255 1.439 0 .154.022.341.066.562a2.618 2.618 0 0 0 .628 1.024c.154.132.33.198.528.198.484 0 1.012-.275 1.584-.826.573-.573 1.145-1.278 1.717-2.115a29.303 29.303 0 0 0 1.717-2.742c.572-.991 1.11-1.917 1.617-2.776.507-.881.958-1.619 1.354-2.214.418-.616.759-.958 1.023-1.024.11.242.22.65.33 1.223.11.572.254 1.211.43 1.916.198.705.429 1.443.693 2.214a12.2 12.2 0 0 0 1.023 2.082 5.999 5.999 0 0 0 1.519 1.553c.594.396 1.298.594 2.113.594.66 0 1.364-.209 2.113-.627.77-.441 1.55-.992 2.343-1.653a26.013 26.013 0 0 0 2.41-2.313c.735-.775 1.43-1.55 2.092-2.326-.006.093-.017.188-.017.278 0 .418.077.848.23 1.288.155.419.32.849.496 1.29.176.44.34.891.495 1.354.154.44.23.87.23 1.289 0 .55-.186.947-.56 1.189-.352.242-.748.44-1.188.595a9.474 9.474 0 0 0-1.19.462c-.351.177-.527.463-.527.86 0 .242.077.44.23.594a.763.763 0 0 0 .562.232c.396 0 .848-.1 1.354-.298a5.394 5.394 0 0 0 1.386-.793c.44-.33.804-.705 1.09-1.123.308-.419.462-.848.462-1.289 0-.55-.077-1.09-.231-1.619-.132-.55-.297-1.09-.495-1.62a49.315 49.315 0 0 1-.496-1.651 7.206 7.206 0 0 1-.198-1.685c0-.551.176-1.113.529-1.686.374-.572.825-1.09 1.353-1.553s1.09-.837 1.684-1.123c.594-.286 1.133-.43 1.617-.43-.11.067-.253.22-.43.463Zm-22.476.826c-.198.242-.451.606-.759 1.09-.309.485-.628.98-.958 1.487-.308.507-.594.992-.858 1.454-.264.44-.44.75-.528.925a6.089 6.089 0 0 0-.297.496c-.176.308-.397.683-.66 1.123-.265.441-.562.926-.892 1.454a20.897 20.897 0 0 1-.924 1.454 14.9 14.9 0 0 1-.859 1.124c-.264.286-.473.43-.627.43h-.231c0-.375.132-.904.396-1.587.264-.705.605-1.476 1.024-2.313.44-.837.935-1.685 1.485-2.544a27.806 27.806 0 0 1 1.651-2.38c.572-.726 1.122-1.31 1.65-1.75.53-.463.991-.694 1.387-.694v.231ZM216.384 40.94c-.064.15-.143.296-.201.447-.352.948-.528 1.85-.528 2.71 0 .837.187 1.564.561 2.18.396.595.98.893 1.75.893.682 0 1.453-.298 2.311-.892.858-.595 1.75-1.4 2.674-2.412s1.86-2.181 2.806-3.503c.946-1.344 1.86-2.754 2.74-4.23s1.706-2.973 2.476-4.493a61.835 61.835 0 0 0 2.014-4.362c.594-1.41 1.056-2.698 1.386-3.866.331-1.19.496-2.17.496-2.94 0-.089-.011-.144-.033-.166 0-.044-.044-.088-.132-.132a4.131 4.131 0 0 0-.859.231c-.286.11-.495.342-.627.694-.242 1.256-.693 2.72-1.354 4.395a56.902 56.902 0 0 1-2.31 5.155 78.193 78.193 0 0 1-2.939 5.286c-1.056 1.74-2.112 3.294-3.169 4.66-1.034 1.365-2.025 2.477-2.97 3.337-.947.837-1.762 1.255-2.444 1.255-.352 0-.56-.11-.627-.33a2.878 2.878 0 0 1-.099-.76c0-.749.198-1.564.594-2.445.418-.881.924-1.74 1.52-2.578a22.94 22.94 0 0 1 1.88-2.379c.661-.727 1.255-1.31 1.783-1.75.594-.508 1.155-.882 1.684-1.124.528-.265.99-.474 1.386-.628.396-.154.704-.286.925-.397.242-.132.363-.33.363-.594 0-.375-.088-.573-.264-.595-.154-.044-.397-.066-.727-.066-.594 0-1.276.187-2.046.561-.37.18-.746.397-1.126.643-.055-.018-.102-.048-.172-.048-.176 0-.363.044-.56.132-.177.088-.342.22-.496.397-.358.457-.751.936-1.165 1.428-.403.38-.804.783-1.202 1.215-.38.425-.743.865-1.088 1.319-.447.452-.913.905-1.398 1.358a40.471 40.471 0 0 1-3.104 2.61 27.355 27.355 0 0 1-3.367 2.18 18.084 18.084 0 0 1-3.565 1.52 12.338 12.338 0 0 1-3.665.563c-.836 0-1.562-.265-2.179-.793-.594-.551-.979-1.333-1.155-2.346a30.776 30.776 0 0 0 2.773-1.752 19.374 19.374 0 0 0 2.443-2.048c.704-.727 1.266-1.465 1.684-2.214.44-.75.66-1.498.66-2.247 0-.925-.198-1.553-.594-1.883s-.99-.496-1.783-.496c-.55 0-1.11.154-1.684.463a8.014 8.014 0 0 0-1.617 1.222c-.21.21-.412.443-.611.68-.617.471-1.33.992-2.143 1.567-1.122.793-2.322 1.619-3.598 2.478a300.424 300.424 0 0 1-3.896 2.511c-1.32.815-2.553 1.553-3.697 2.214a62.472 62.472 0 0 1-3.005 1.586c-.858.397-1.463.595-1.815.595-.528 0-.958-.242-1.288-.727a3.242 3.242 0 0 1-.462-1.718c0-.881.21-1.85.627-2.908.386-.993.885-1.913 1.474-2.775a87.167 87.167 0 0 0 1.874-2.089c.19-.16.382-.313.581-.456.88-.616 1.783-.925 2.707-.925.396 0 .748.088 1.056.265.33.154.628.308.892.462.264.154.517.253.76.298.241.022.483-.089.725-.331.176-.176.198-.396.066-.66-.132-.287-.374-.551-.726-.794-.352-.264-.792-.484-1.32-.66a4.996 4.996 0 0 0-1.65-.265c-.859 0-1.806.308-2.84.925-1.013.617-1.97 1.443-2.872 2.478a13.378 13.378 0 0 0-1.228 1.662l-.244.255a92.833 92.833 0 0 1-2.542 2.643 35.341 35.341 0 0 1-2.542 2.38 20.221 20.221 0 0 1-2.377 1.75c-.726.441-1.364.661-1.914.661-.485 0-.87-.264-1.156-.793-.264-.55-.495-1.233-.693-2.048a49.68 49.68 0 0 1-.56-2.644 17.768 17.768 0 0 0-.629-2.643c-.264-.815-.616-1.487-1.056-2.016-.44-.55-1.023-.826-1.75-.826-.484 0-.979.176-1.485.529a8.678 8.678 0 0 0-1.519 1.388 21.356 21.356 0 0 0-1.452 1.95c-.463.704-.914 1.409-1.354 2.114-.418.705-.814 1.388-1.188 2.049a28.021 28.021 0 0 1-.99 1.586c.021-.287.076-.75.164-1.388.11-.639.253-1.421.43-2.346.197-.925.43-1.972.693-3.14.286-1.189.616-2.477.99-3.865.044-.287.077-.573.1-.86.043-.308-.089-.45-.397-.429h-.627c-.176 0-.374.32-.595.958-.132.37-.268.81-.408 1.307-.404.407-.83.85-1.303 1.37a162.63 162.63 0 0 1-2.08 2.247c-.704.77-1.43 1.542-2.178 2.313a31.87 31.87 0 0 1-2.212 2.081c-.705.617-1.387 1.113-2.047 1.487-.66.375-1.255.562-1.783.562-.748 0-1.364-.297-1.848-.892-.485-.595-.892-1.344-1.222-2.247a25.156 25.156 0 0 1-.858-2.908 52.573 52.573 0 0 0-.694-2.94c-.22-.904-.473-1.653-.759-2.247s-.66-.892-1.122-.892c-.595 0-1.255.286-1.98.859-.727.55-1.454 1.266-2.18 2.147s-1.43 1.873-2.113 2.974a36.727 36.727 0 0 0-1.815 3.205 26.22 26.22 0 0 0-1.288 2.908c-.308.881-.462 1.575-.462 2.082 0 .154.022.341.066.561.066.199.154.386.264.562.11.176.231.33.363.463.154.132.33.198.528.198.485 0 1.013-.275 1.585-.826.572-.573 1.144-1.278 1.717-2.115a29.311 29.311 0 0 0 1.716-2.742 395.24 395.24 0 0 1 1.618-2.776c.506-.881.957-1.619 1.353-2.214.42-.616.76-.958 1.024-1.024.11.242.22.65.33 1.223s.253 1.211.43 1.916c.197.705.428 1.443.692 2.214.287.749.628 1.443 1.024 2.082a5.993 5.993 0 0 0 1.518 1.553c.595.396 1.3.594 2.113.594.66 0 1.365-.209 2.113-.627.77-.441 1.552-.992 2.344-1.653a26.139 26.139 0 0 0 2.41-2.313 61.671 61.671 0 0 0 2.311-2.577 54.305 54.305 0 0 0 1.827-2.21 84.87 84.87 0 0 0-.413 1.913c-.22 1.167-.429 2.302-.627 3.403a79.984 79.984 0 0 0-.429 2.94c-.11.882-.166 1.51-.166 1.884v.364c.022.154.055.308.1.462.044.133.11.254.198.364.11.088.253.132.43.132.197 0 .384-.1.56-.297.176-.199.33-.43.462-.694.154-.265.297-.518.43-.76.131-.265.241-.452.33-.562.264-.396.583-.903.957-1.52l1.254-1.95c.44-.704.892-1.41 1.354-2.114a24.61 24.61 0 0 1 1.42-1.884c.462-.572.891-1.035 1.287-1.387.418-.353.781-.53 1.09-.53.461 0 .825.265 1.09.794.285.529.516 1.19.692 1.983.198.793.374 1.663.528 2.61.176.925.396 1.784.66 2.577.265.793.606 1.454 1.024 1.983.418.528.968.793 1.65.793.595 0 1.442-.353 2.542-1.058 1.101-.727 2.322-1.674 3.665-2.841a76.858 76.858 0 0 0 1.987-1.829 9.565 9.565 0 0 0-.252 2.16c0 1.475.31 2.532.925 3.171.638.617 1.463.925 2.476.925.462 0 1.078-.165 1.848-.495a26.048 26.048 0 0 0 2.641-1.388 81.135 81.135 0 0 0 3.137-1.916 175.698 175.698 0 0 0 3.334-2.214c1.1-.75 2.157-1.487 3.17-2.214a908.19 908.19 0 0 0 2.253-1.622c-.041.079-.087.155-.127.234-.33.705-.594 1.42-.793 2.148a8.09 8.09 0 0 0-.264 1.95c0 1.85.452 3.293 1.354 4.328.902 1.035 2.113 1.553 3.631 1.553 1.3 0 2.608-.22 3.93-.66a22.137 22.137 0 0 0 3.894-1.785 30.958 30.958 0 0 0 3.698-2.478c.516-.412 1.01-.826 1.498-1.241Zm-76.564-6.921c-.198.242-.451.606-.759 1.09-.308.485-.627.98-.957 1.487-.308.507-.594.992-.859 1.454-.264.44-.44.75-.528.925a6.075 6.075 0 0 0-.297.496 87.271 87.271 0 0 1-1.552 2.577 20.923 20.923 0 0 1-.924 1.454c-.308.44-.594.815-.858 1.124-.264.286-.473.43-.627.43h-.232c0-.375.133-.904.397-1.587a24.35 24.35 0 0 1 1.023-2.313c.44-.837.935-1.685 1.486-2.544.55-.881 1.1-1.674 1.65-2.38.572-.726 1.123-1.31 1.651-1.75.528-.463.99-.694 1.386-.694v.23Zm60.87 3.833c.396-.925.859-1.73 1.387-2.412.18-.241.365-.458.55-.663.152-.086.25-.13.294-.13.221-.154.364-.297.43-.43.029-.058.027-.116.044-.174.11-.09.22-.178.332-.255.595-.419 1.112-.628 1.552-.628.242 0 .418.099.528.297a.967.967 0 0 1 .198.595c0 .507-.176 1.057-.528 1.652a9.873 9.873 0 0 1-1.32 1.751 16.708 16.708 0 0 1-1.915 1.752 20.738 20.738 0 0 1-2.179 1.553 8.71 8.71 0 0 1 .627-2.908ZM169.951 73.816a7.48 7.48 0 0 1 1.683-1.123c.595-.287 1.134-.43 1.618-.43-.11.066-.253.22-.429.463-.154.22-.231.407-.231.562 0 .132.066.242.198.33a.82.82 0 0 0 .363.1c.264 0 .484-.067.66-.2a1.24 1.24 0 0 0 .396-.495c.11-.198.187-.418.231-.66.045-.243.067-.485.067-.727 0-.507-.199-.827-.595-.959a3.852 3.852 0 0 0-1.287-.198c-.771 0-1.53.264-2.278.793a9.036 9.036 0 0 0-1.981 1.917 12.042 12.042 0 0 0-1.419 2.478c-.353.859-.529 1.63-.529 2.313 0 .418.077.848.231 1.288.154.419.32.848.496 1.289.176.44.341.892.495 1.355.154.44.231.87.231 1.288 0 .551-.187.948-.561 1.19-.352.242-.749.44-1.189.595a9.52 9.52 0 0 0-1.188.462c-.352.176-.528.463-.528.86 0 .242.077.44.231.594a.763.763 0 0 0 .561.232c.396 0 .847-.1 1.353-.298a5.383 5.383 0 0 0 1.387-.793c.44-.33.803-.705 1.089-1.123.308-.419.463-.848.463-1.289 0-.55-.077-1.09-.232-1.62-.132-.55-.297-1.09-.495-1.618a47.05 47.05 0 0 1-.495-1.652 7.206 7.206 0 0 1-.198-1.685c0-.551.176-1.113.528-1.686a7.54 7.54 0 0 1 1.354-1.553ZM247.495 6.018c.902 1.035 2.113 1.553 3.632 1.553.801 0 1.607-.095 2.417-.262a58.615 58.615 0 0 0-2.822-1.467 3.19 3.19 0 0 1-1.63-.74 58.455 58.455 0 0 0-2.647-1.105c.224.787.568 1.467 1.05 2.02ZM181.691 76.922c.154-.749.308-1.465.462-2.147.176-.705.33-1.3.462-1.785l12.743-.231c.264 0 .473-.044.628-.132.154-.11.231-.342.231-.694 0-.22-.066-.363-.198-.43a.762.762 0 0 0-.43-.132h-5.843c-.748-.066-1.463-.099-2.146-.099a58.467 58.467 0 0 0-1.948-.033h-2.541c0-.176.044-.407.132-.694.088-.308.242-.716.462-1.222a41.1 41.1 0 0 1 .99-1.983c.418-.815.957-1.84 1.618-3.073.066-.154.132-.33.198-.529a1.78 1.78 0 0 0 .099-.561.875.875 0 0 0-.132-.496c-.088-.132-.253-.198-.495-.198-.463 0-.892.22-1.288.66-.396.42-.76.959-1.09 1.62-.33.66-.638 1.366-.924 2.115-.264.749-.506 1.453-.726 2.114-.22.661-.418 1.212-.594 1.652-.154.419-.297.628-.43.628h-2.805c-.31 0-.551.1-.727.298a.923.923 0 0 0-.231.627c0 .22.044.397.132.53.11.11.23.197.363.263.132.088.297.144.496.166h.627c.286 0 .572-.011.858-.033.33-.022.682-.044 1.057-.067-.066.441-.166 1.014-.298 1.719s-.264 1.454-.396 2.247a46.28 46.28 0 0 0-.33 2.246 15.613 15.613 0 0 0-.132 1.818c0 .55.022 1.046.066 1.487.066.418.165.826.297 1.222.132.375.308.75.528 1.124.22.352.485.738.793 1.156.176.154.352.298.528.43.198.132.407.198.627.198.44 0 .837-.143 1.189-.43.374-.308.693-.616.957-.925a.921.921 0 0 0-.198-.561c-.11-.177-.253-.265-.43-.265-.22 0-.44.1-.66.298-.22.198-.462.297-.726.297-.308 0-.55-.187-.726-.562a6.398 6.398 0 0 1-.363-1.288 10.792 10.792 0 0 1-.165-1.388 24.37 24.37 0 0 1-.033-.925c0-.529.044-1.146.132-1.85.088-.728.198-1.455.33-2.182ZM280.597 71.57a.923.923 0 0 0-.231.627c0 .22.044.397.132.529.11.11.231.198.363.264.132.088.297.144.495.166h.627c.124 0 .248-.01.373-.015.152-.62.298-1.242.43-1.869h-1.463c-.308 0-.55.1-.726.297ZM81.395 35.506c.11.242.22.65.33 1.222.11.573.253 1.212.43 1.917.197.705.428 1.443.693 2.214.286.749.627 1.443 1.023 2.081a5.994 5.994 0 0 0 1.519 1.553c.594.397 1.298.595 2.112.595.66 0 1.365-.21 2.113-.628.77-.44 1.552-.99 2.344-1.652.05-.042.1-.093.152-.136a6.983 6.983 0 0 0-.157 1.425c0 .837.187 1.564.561 2.18.396.595.98.893 1.75.893.682 0 1.452-.298 2.31-.892.859-.595 1.75-1.4 2.675-2.412a38.254 38.254 0 0 0 2.806-3.503 67.017 67.017 0 0 0 2.74-4.23 75.21 75.21 0 0 0 2.476-4.493 61.806 61.806 0 0 0 2.013-4.362c.595-1.41 1.057-2.698 1.387-3.866.33-1.19.495-2.17.495-2.94 0-.089-.01-.144-.033-.166 0-.044-.044-.088-.132-.132a4.142 4.142 0 0 0-.858.231c-.286.11-.496.342-.628.694-.242 1.256-.693 2.72-1.353 4.395a56.921 56.921 0 0 1-2.31 5.155 78.178 78.178 0 0 1-2.939 5.286c-1.057 1.74-2.113 3.294-3.17 4.66-1.034 1.365-2.024 2.477-2.97 3.337-.947.837-1.761 1.255-2.443 1.255-.352 0-.561-.11-.627-.33a2.878 2.878 0 0 1-.1-.76c0-.749.199-1.564.595-2.445.418-.881.924-1.74 1.518-2.578.081-.117.168-.223.25-.338.24-.273.483-.545.713-.818.6-.688 1.135-1.34 1.636-1.972.378-.382.739-.73 1.066-1.002.594-.507 1.155-.881 1.683-1.123.528-.265.991-.474 1.387-.628.396-.155.704-.287.924-.397.242-.132.363-.33.363-.595 0-.374-.088-.572-.264-.594-.154-.044-.396-.066-.726-.066-.594 0-1.277.187-2.047.561-.77.375-1.562.892-2.377 1.553a21.759 21.759 0 0 0-2.344 2.214c-.748.837-1.43 1.73-2.046 2.677-.151.235-.275.476-.412.714a31.705 31.705 0 0 1-2.191 2.061c-.704.617-1.387 1.113-2.047 1.487-.66.375-1.254.562-1.782.562-.749 0-1.365-.298-1.85-.892-.483-.595-.89-1.344-1.22-2.247a25.136 25.136 0 0 1-.86-2.908 53.592 53.592 0 0 0-.692-2.94c-.22-.904-.473-1.653-.76-2.248-.286-.594-.66-.892-1.122-.892-.594 0-1.255.287-1.98.86-.727.55-1.453 1.266-2.18 2.147s-1.43 1.872-2.112 2.974a36.713 36.713 0 0 0-1.816 3.205 26.379 26.379 0 0 0-1.288 2.908c-.308.88-.462 1.575-.462 2.081 0 .155.022.342.066.562.066.198.154.386.264.562.11.176.231.33.363.462.154.133.33.199.529.199.484 0 1.012-.276 1.584-.826.572-.573 1.145-1.278 1.717-2.115a29.313 29.313 0 0 0 1.717-2.743c.572-.99 1.111-1.916 1.617-2.775.506-.881.958-1.62 1.354-2.214.418-.617.759-.958 1.023-1.024Zm-2.74 1.09c-.308.507-.594.991-.858 1.454-.265.44-.44.75-.529.925a6.057 6.057 0 0 0-.297.496c-.176.308-.396.683-.66 1.123-.264.441-.561.926-.891 1.454a20.96 20.96 0 0 1-.925 1.454c-.308.44-.594.815-.858 1.124-.264.286-.473.43-.627.43h-.232c0-.375.133-.904.397-1.587.264-.705.605-1.476 1.023-2.313.44-.837.935-1.685 1.486-2.544.55-.881 1.1-1.674 1.65-2.38.572-.726 1.123-1.31 1.651-1.75.528-.463.99-.694 1.386-.694v.23a11.94 11.94 0 0 0-.759 1.091c-.308.485-.627.98-.957 1.487ZM116.114 40.132c.286 2.137.65 4.273 1.09 6.41.154.771.649 1.156 1.485 1.156.286-.594.749-1.343 1.387-2.246s1.342-1.862 2.113-2.875a240.376 240.376 0 0 1 2.443-3.14l2.278-2.94a67.437 67.437 0 0 0 1.683-2.313c.44-.66.66-1.09.66-1.289 0-.308-.022-.528-.066-.66-.044-.133-.22-.177-.528-.133-.198.022-.55.309-1.056.86a51.792 51.792 0 0 0-1.717 2.081c-.638.815-1.331 1.73-2.08 2.743-.726.99-1.43 1.95-2.112 2.874-.661.903-1.266 1.73-1.816 2.478-.528.727-.925 1.234-1.189 1.52-.308-.947-.572-2.39-.792-4.328-.198-1.96-.341-4.571-.429-7.831.11-.177.198-.32.264-.43.088-.132.132-.308.132-.529 0-.616-.297-.925-.891-.925-.529 0-.892.276-1.09.826-.176.53-.242 1.212-.198 2.049 0 2.269.143 4.483.429 6.642Z" fill="#19132d"></path><g><path d="M606.536 130.991c-32.559 0-58.952 26.417-58.952 59.005S573.977 249 606.536 249h58.951l-17.266-17.282c10.668-10.677 17.266-25.429 17.266-41.722 0-32.588-26.393-59.005-58.951-59.005Z" fill="#76ccfd"></path><path d="M663.6 175.137c-.685 1.188-1.19 2.105-1.503 2.735-.132.134-.731 1.136-1.794 3.006a388.574 388.574 0 0 1-3.988 6.811 570.544 570.544 0 0 1-5.384 8.816c-1.861 3.205-3.722 6.144-5.583 8.815-1.861 2.671-3.59 4.942-5.184 6.812-1.595 1.736-2.858 2.604-3.789 2.604h-1.395c0-2.27.797-5.476 2.392-9.616 1.596-4.275 3.656-8.95 6.182-14.025 2.658-5.075 5.649-10.217 8.972-15.426a179.022 179.022 0 0 1 7.313-10.888 59 59 0 0 0-6.024-10.033 434.32 434.32 0 0 1-3.543 4.09c-4.918 5.478-10.302 10.954-16.151 16.43s-12.096 10.752-18.743 15.827a165.586 165.586 0 0 1-20.338 13.223 108.985 108.985 0 0 1-21.535 9.216c-6.428 1.996-12.906 3.113-19.436 3.354a59.038 59.038 0 0 0 6.151 9.589 77.826 77.826 0 0 0 14.083-3.326c8.109-2.805 15.952-6.411 23.529-10.82a186.9 186.9 0 0 0 22.332-15.025 336.023 336.023 0 0 0 18.212-15.656 205.667 205.667 0 0 0-2.599 5.038c-3.19 6.277-5.782 12.154-7.776 17.63-1.861 5.343-2.792 9.55-2.792 12.622 0 .935.133 2.07.399 3.406a15.963 15.963 0 0 0 1.595 3.406 15.775 15.775 0 0 0 2.194 2.805c.93.8 1.994 1.202 3.19 1.202 2.924 0 6.115-1.67 9.571-5.01 3.456-3.472 6.912-7.746 10.368-12.821 3.59-5.076 7.046-10.62 10.369-16.63.867-1.507 1.721-2.989 2.563-4.446a59.115 59.115 0 0 0-1.859-13.715ZM566.527 148.021c0 3.072-1.064 6.411-3.191 10.017-1.994 3.473-4.652 7.012-7.976 10.618a91.47 91.47 0 0 1-5.633 5.58 58.951 58.951 0 0 0-2.08 13.285c.111-.078.224-.153.336-.232 5.583-4.007 10.501-8.148 14.755-12.422 4.254-4.407 7.643-8.882 10.169-13.423 2.659-4.541 3.988-9.082 3.988-13.624 0-3.328-.432-6.006-1.274-8.065a59.17 59.17 0 0 0-9.228 7.046c.08.395.134.798.134 1.22Z" fill="#19132d"></path></g><g><path d="M479.2 130.992H59.464c-32.558 0-58.951 26.417-58.951 59.005 0 16.293 6.598 31.044 17.266 41.722L.513 249.001H479.2c32.558 0 58.951-26.417 58.951-59.004s-26.393-59.005-58.951-59.005Z" fill="#d3e500"></path><path d="m88.096 215.367 3.31-19.372h-5.602c-2.547 7.732-6.876 11.64-13.073 11.64h-6.112c-3.65 0-5.348-1.104-5.348-5.098v-13.084h6.791c5.178 0 6.622 2.124 6.706 7.562h5.943v-22.177h-5.943c0 5.438-1.528 7.562-6.706 7.562h-6.791v-18.182h11.46c7.13 0 11.036 1.784 11.46 10.875h5.603v-18.522H37.756v5.607h.764c4.67 0 6.707 1.615 6.707 6.288v35.006c0 4.673-2.038 6.288-6.707 6.288h-.764v5.607h50.34Zm51.08-35.94v-5.693h-17.997v5.693h1.698c1.952 0 2.971.849 2.971 2.549 0 .934-.255 2.209-.849 3.568l-6.112 15.804-6.027-15.464c-.595-1.614-.934-2.889-.934-3.908 0-1.7 1.018-2.549 3.141-2.549h1.528v-5.693H91.637v5.693c3.48.085 4.754 2.379 6.367 6.117l12.988 29.823h9.083l12.479-29.993c1.613-3.653 2.801-5.862 6.622-5.947Zm37.581 9.941c-.424-9.941-6.791-16.824-17.147-16.824-10.442 0-20.544 8.327-20.544 22.601 0 12.66 8.404 21.412 19.525 21.412 12.903 0 17.572-11.555 17.997-17.928h-4.16c-1.443 3.314-4.499 5.523-9.338 5.523-7.64 0-12.394-5.778-12.394-12.745h25.976c.085-.68.085-1.36.085-2.039Zm-11.29-3.144h-14.431c.594-4.333 3.65-7.222 7.64-7.222 4.414 0 6.706 3.483 6.791 7.222Zm44.824-13.255c-5.263 0-8.744 3.994-9.932 8.157h-.594v-8.157h-4.33c-4.754 1.105-11.46 2.974-16.299 3.909v4.843h1.698c3.311 0 4.924 1.019 4.924 4.673v18.692c0 3.144-.934 4.844-5.264 4.844h-.424v5.437h26.995v-5.437h-1.443c-3.99 0-5.857-.935-5.857-5.268v-15.124c0-3.059 1.443-4.164 2.886-4.164 2.462 0 2.886 3.314 8.149 3.314 3.735 0 7.216-2.804 7.216-7.902 0-4.673-2.971-7.817-7.725-7.817Zm18.145 60.666c8.574 0 13.327-5.183 17.063-14.274l13.922-33.477c1.952-4.418 3.14-6.287 6.621-6.542v-5.693h-16.978v5.693h.849c2.292 0 3.395.934 3.395 2.719 0 .849-.339 2.039-.933 3.568l-5.773 14.614-6.027-14.274c-.594-1.444-.934-2.634-.934-3.569 0-1.954 1.189-3.058 3.65-3.058h.764v-5.693h-24.788v5.693c3.651.085 4.924 2.464 6.537 5.947l13.837 29.059-.849 2.124c-1.273 3.144-3.65 4.758-7.131 4.758-1.952 0-3.141-.425-5.263-.425-4.074 0-6.961 2.294-6.961 5.948 0 4.333 3.651 6.882 8.999 6.882Zm110.36-54.208v-5.693h-16.894v5.693h1.613c1.783 0 2.632.849 2.632 2.464 0 .934-.255 2.209-.849 3.823l-5.348 14.699-5.518-14.614c-.594-1.444-.934-2.719-.934-3.738 0-1.785.934-2.634 2.717-2.634h1.018v-5.693h-21.816v5.693c2.037 0 3.565.764 4.499 3.228l.255.765-6.198 16.229-5.178-13.85c-.594-1.699-1.018-2.974-1.018-3.993 0-1.615.848-2.379 2.631-2.379h1.019v-5.693h-24.449v5.693c3.481 0 4.584 1.019 6.707 6.117l12.224 29.823h8.574l8.998-23.705 9.253 23.705h8.489l11.036-29.993c1.613-4.503 3.226-5.947 6.537-5.947Zm-.329 30.503h-.34v5.437h23.769v-5.437h-.254c-3.311 0-3.82-1.19-3.82-4.844v-19.542c1.358-1.444 3.565-2.464 5.942-2.464 3.311 0 5.603 1.445 5.603 6.203v15.973c0 3.654-.425 4.674-3.736 4.674h-.254v5.437h23.26v-5.437h-.34c-4.075 0-4.923-1.53-4.923-5.353v-18.778c0-8.412-4.5-13-12.225-13-6.112 0-10.781 3.059-12.818 7.817h-.509v-17.758c0-3.653.084-7.647.169-10.281h-4.838c-5.179 1.36-13.158 3.569-17.233 4.248v5.183h2.971c3.056 0 4.924 1.02 4.924 5.353v37.725c0 2.974-.934 4.759-5.348 4.844Zm89.363-20.562c-.424-9.941-6.791-16.824-17.148-16.824-10.441 0-20.543 8.327-20.543 22.601 0 12.66 8.404 21.412 19.525 21.412 12.903 0 17.572-11.555 17.996-17.928h-4.159c-1.443 3.314-4.499 5.523-9.338 5.523-7.64 0-12.394-5.778-12.394-12.745h25.976c.085-.68.085-1.36.085-2.039Zm-11.29-3.144h-14.432c.595-4.333 3.651-7.222 7.641-7.222 4.414 0 6.706 3.483 6.791 7.222Zm44.824-13.255c-5.263 0-8.744 3.994-9.932 8.157h-.595v-8.157h-4.329c-4.754 1.105-11.46 2.974-16.299 3.909v4.843h1.698c3.311 0 4.923 1.019 4.923 4.673v18.692c0 3.144-.933 4.844-5.263 4.844h-.424v5.437h26.995v-5.437h-1.443c-3.99 0-5.858-.935-5.858-5.268v-15.124c0-3.059 1.444-4.164 2.887-4.164 2.461 0 2.886 3.314 8.149 3.314 3.735 0 7.216-2.804 7.216-7.902 0-4.673-2.971-7.817-7.725-7.817Zm46.386 16.399c-.425-9.941-6.792-16.824-17.148-16.824-10.442 0-20.544 8.327-20.544 22.601 0 12.66 8.404 21.412 19.525 21.412 12.903 0 17.572-11.555 17.997-17.928h-4.16c-1.443 3.314-4.499 5.523-9.338 5.523-7.64 0-12.394-5.778-12.394-12.745h25.977c.085-.68.085-1.36.085-2.039Zm-11.291-3.144h-14.431c.594-4.333 3.65-7.222 7.64-7.222 4.414 0 6.706 3.483 6.791 7.222Z" fill="#19132d"></path></g></svg> 