<?xml version="1.0" encoding="UTF-8" standalone="no"?>
<!-- Created with Inkscape (http://www.inkscape.org/) -->

<svg
   xmlns:dc="http://purl.org/dc/elements/1.1/"
   xmlns:cc="http://creativecommons.org/ns#"
   xmlns:rdf="http://www.w3.org/1999/02/22-rdf-syntax-ns#"
   xmlns:svg="http://www.w3.org/2000/svg"
   xmlns="http://www.w3.org/2000/svg"
   xmlns:sodipodi="http://sodipodi.sourceforge.net/DTD/sodipodi-0.dtd"
   xmlns:inkscape="http://www.inkscape.org/namespaces/inkscape"
   version="1.1"
   id="svg834"
   xml:space="preserve"
   width="2261.3147"
   height="1077.0009"
   viewBox="0 0 2261.3147 1077.0009"
   sodipodi:docname="logo oxalis-white.svg"
   inkscape:version="0.92.4 5da689c313, 2019-01-14"><metadata
     id="metadata840"><rdf:RDF><cc:Work
         rdf:about=""><dc:format>image/svg+xml</dc:format><dc:type
           rdf:resource="http://purl.org/dc/dcmitype/StillImage" /><dc:title></dc:title></cc:Work></rdf:RDF></metadata><defs
     id="defs838"><clipPath
       clipPathUnits="userSpaceOnUse"
       id="clipPath850"><path
         d="M 0,1700.79 H 2834.65 V 0 H 0 Z"
         id="path848"
         inkscape:connector-curvature="0" /></clipPath></defs><sodipodi:namedview
     pagecolor="#ffffff"
     bordercolor="#666666"
     borderopacity="1"
     objecttolerance="10"
     gridtolerance="10"
     guidetolerance="10"
     inkscape:pageopacity="0"
     inkscape:pageshadow="2"
     inkscape:window-width="1867"
     inkscape:window-height="1052"
     id="namedview836"
     showgrid="false"
     fit-margin-top="0"
     fit-margin-left="0"
     fit-margin-right="0"
     fit-margin-bottom="0"
     inkscape:pagecheckerboard="true"
     inkscape:zoom="0.33310992"
     inkscape:cx="1130.6573"
     inkscape:cy="538.50033"
     inkscape:window-x="53"
     inkscape:window-y="0"
     inkscape:window-maximized="1"
     inkscape:current-layer="g842" /><g
     id="g842"
     inkscape:groupmode="layer"
     inkscape:label="logo oxalis"
     transform="matrix(1.3333333,0,0,-1.3333333,-759.10931,1672.3606)"><g
       id="g844"
       style="fill:#ffffff"><g
         id="g846"
         clip-path="url(#clipPath850)"
         style="fill:#ffffff"><g
           id="g852"
           transform="translate(1871.2881,1055.2744)"
           style="fill:#ffffff"><path
             d="m 0,0 c -8.2,1.858 -13.85,-1.866 -19.375,-7.509 -5.846,-5.971 -12.006,-11.886 -20.188,-14.914 -2.546,-0.943 -4.052,-2.942 -5.228,-5.522 -2.71,-5.946 -5.368,-12.017 -8.973,-17.42 -2.763,-4.142 -4.404,-8.086 -3.936,-13.031 0.28,-2.963 1.264,-6.7 -0.076,-8.815 -3.88,-6.121 -3.758,-12.219 -2.138,-18.731 0.175,-0.704 -0.008,-1.494 -0.004,-2.243 0.031,-5.811 0.186,-11.625 0.044,-17.432 -0.053,-2.178 -0.575,-4.408 -1.249,-6.497 -2.068,-6.41 -4.387,-12.739 -6.456,-19.149 -0.854,-2.642 0.708,-4.15 3.308,-3.089 1.839,0.751 3.479,2.128 5.023,3.444 6.965,5.932 13.018,12.819 20.605,18.163 6,4.225 9.948,10.743 12.754,17.516 1.504,3.629 3.681,6.041 7.007,7.52 5.278,2.346 9.368,5.92 12.939,10.454 3.106,3.945 6.725,7.548 10.464,10.918 3.693,3.329 6.869,6.83 8.383,11.685 1.628,5.217 3.786,10.182 7.642,14.23 0.502,0.527 0.846,1.247 1.13,1.933 2.832,6.822 7.094,12.708 11.775,18.35 1.164,1.403 2.423,3.081 2.713,4.789 0.959,5.664 3.286,10.628 6.461,15.339 1.964,2.915 1.02,5.43 -2.513,6.444 -2.859,0.82 -5.876,1.226 -8.851,1.476 C 25.931,8.357 20.828,7.813 16.398,4.211 11.608,0.315 5.95,-0.609 0,0 m -72.934,-92.822 h -0.046 c 0,3.001 0.301,6.038 -0.065,8.994 -0.703,5.677 -1.808,11.181 -8.699,12.92 -2.121,0.535 -4.163,1.79 -5.966,3.096 -3.502,2.536 -6.519,2.287 -10.273,0.077 -6.264,-3.685 -12.683,-7.207 -20.179,-8.155 -2.057,-0.26 -4.039,-1.837 -5.861,-3.091 -6.497,-4.475 -13.813,-6.73 -21.515,-7.222 -4.774,-0.304 -8.82,-1.235 -11.961,-5.015 -4.297,-5.173 -9.904,-7.216 -16.518,-6.585 -2.972,0.284 -5.93,0.732 -8.894,1.108 -1.844,0.234 -3.794,0.982 -5.515,0.623 -10.982,-2.286 -21.085,1.28 -31.378,4.119 -4.082,1.125 -8.441,1.352 -12.698,1.697 -2.825,0.229 -5.181,-1.195 -6.56,-3.636 -2.316,-4.1 -6.032,-6.042 -10.322,-7.099 -2.567,-0.632 -4.337,-1.854 -5.395,-4.375 -0.788,-1.874 -1.941,-3.639 -3.165,-5.278 -4.591,-6.148 -9.414,-12.146 -11.297,-19.834 -0.087,-0.354 -0.247,-0.765 -0.509,-0.991 -4.082,-3.525 -3.84,-8.245 -3.669,-12.972 0.101,-2.811 0.319,-5.65 0.04,-8.432 -0.218,-2.16 -0.666,-4.547 -1.808,-6.321 -4.141,-6.43 -8.337,-12.862 -13.023,-18.898 -12.327,-15.881 -11.954,-14.137 -11.652,-34.205 0.073,-4.877 -1.214,-9.253 -4.566,-12.915 -1.896,-2.071 -3.626,-4.315 -5.67,-6.225 -4.894,-4.573 -10.251,-8.473 -11.608,-15.961 -0.611,-3.375 -2.396,-6.597 -2.043,-10.259 0.279,-2.907 -0.629,-5.415 -2.095,-7.973 -3.895,-6.794 -8.519,-12.882 -15.618,-16.493 -4.303,-2.189 -3.514,-6.728 0.623,-8.409 7.094,-2.884 14.175,-3.183 21.339,-0.705 3.534,1.221 7.036,2.64 10.348,4.366 1.705,0.89 3.423,2.395 4.318,4.061 1.763,3.283 4.05,5.672 7.368,7.416 1.47,0.772 3.21,2.66 3.295,4.129 0.266,4.561 2.88,8.062 4.473,12.011 3.065,7.597 6.792,14.602 15.071,17.866 1.514,0.597 2.681,2.029 4.074,2.979 2.783,1.898 5.42,4.168 8.458,5.51 10.014,4.421 18.894,10.664 27.981,16.605 1.666,1.09 3.661,1.989 5.609,2.281 8.366,1.256 15.682,4.6 22.48,9.638 5.699,4.223 11.782,7.978 17.946,11.5 3.028,1.731 6.547,3.01 9.987,3.516 4.632,0.68 8.543,2.547 12.381,4.978 3.791,2.402 7.666,4.684 11.589,6.864 6.353,3.532 12.851,6.599 18.206,11.918 4.175,4.149 9.686,6.952 14.604,10.351 2.76,1.908 5.637,3.665 8.261,5.744 7.304,5.786 14.478,11.735 21.773,17.534 0.99,0.787 2.409,1.013 3.571,1.613 4.43,2.282 8.357,5.009 9.55,10.337 1.139,5.09 1.702,10.339 4.65,14.923 0.723,1.124 0.508,2.911 0.552,4.399 0.077,2.623 0.021,5.25 0.021,7.876 M -1301.31,-303.315 c -0.28,1.384 -0.6,2.263 -0.613,3.148 -0.056,3.911 -0.024,7.824 -0.024,11.788 4.297,1.939 8.071,4.153 12.144,5.33 3.853,1.114 6.787,3.102 9.137,6.116 4.418,5.668 9.528,10.35 15.765,14.158 5.363,3.274 9.986,7.834 14.682,12.105 3.502,3.186 6.966,6.201 11.621,7.614 10.154,3.084 17.41,9.88 23.127,18.518 3.272,4.944 7.247,8.963 12.74,11.51 2.903,1.346 5.071,3.624 6.378,6.812 1.488,3.626 3.73,6.939 5.289,10.541 3.148,7.274 9.091,10.056 16.441,10.812 0.373,0.038 0.749,0.042 1.124,0.06 9.581,0.45 10.157,0.675 9.498,10.004 -0.567,8.033 1.883,14.21 8.116,19.24 1.42,1.146 2.051,3.426 2.721,5.299 0.689,1.925 0.939,4.003 1.457,5.995 1.626,6.262 4.102,11.993 9.241,16.347 1.027,0.87 1.864,3.322 1.354,4.278 -0.545,1.02 -2.78,1.52 -4.297,1.564 -4.308,0.125 -8.64,0.09 -12.936,-0.234 -4.973,-0.376 -9.172,1.229 -13.129,4.029 -1.499,1.062 -3.162,2.146 -4.906,2.559 -4.769,1.13 -8.421,3.778 -11.872,7.128 -2.221,2.156 -5.08,3.665 -7.695,5.402 -1.554,1.032 -3.335,1.767 -4.761,2.943 -4.968,4.098 -10.481,6.378 -17.038,6.031 -3.93,-0.208 -7.879,-0.07 -11.818,-0.099 -7.63,-0.057 -14.604,-1.98 -21.365,-5.792 -5.48,-3.09 -11.718,-4.829 -17.603,-7.209 -3.813,-1.542 -7.561,-3.251 -11.402,-4.717 -3.295,-1.258 -6.706,-2.211 -10.018,-3.428 -1.901,-0.699 -3.694,-1.688 -5.561,-2.486 -1.768,-0.756 -3.57,-1.431 -6.323,-2.526 0,5.702 -0.129,10.33 0.047,14.947 0.108,2.819 2.732,3.383 4.765,4.117 5.624,2.031 11.47,3.513 16.954,5.854 8.36,3.569 17.857,4.602 24.957,11.011 6.724,1.58 13.377,3.823 20.193,4.559 7.42,0.802 14.991,0.251 22.496,0.203 6.966,-0.045 12.869,-3.535 19.047,-6.091 2.569,-1.063 4.988,-2.52 7.601,-3.44 2.965,-1.045 5.435,-2.363 6.594,-5.549 1.249,-3.43 3.919,-5.221 7.36,-6.354 2.596,-0.854 5.09,-2.212 7.399,-3.703 3.118,-2.014 6.087,-3.081 10.009,-2.26 3.602,0.754 7.459,0.275 11.203,0.386 6.238,0.185 8.032,2.353 7.005,8.522 -0.213,1.285 -0.55,2.584 -1.06,3.778 -2.849,6.682 -1.825,13.672 -1.569,20.566 0.057,1.518 1.043,3.246 2.098,4.437 3.096,3.495 6.342,6.875 9.721,10.099 3.035,2.897 5.255,6.086 6.786,10.107 2.764,7.262 7.012,13.436 14.066,17.614 7.235,4.286 14.102,9.223 20.912,14.177 2.026,1.474 3.372,3.921 4.926,5.999 2.576,3.443 4.64,7.407 7.729,10.283 2.465,2.295 5.997,3.746 9.305,4.76 4.254,1.304 7.378,3.201 8.805,7.705 1.773,5.599 5.326,9.51 10.933,12.067 6.271,2.861 12.034,6.824 18.093,10.173 1.786,0.988 3.926,1.334 5.722,2.308 2.915,1.58 6.124,2.989 8.423,5.263 6.054,5.988 12.896,9.645 21.564,9.016 5.373,-0.391 9.539,2.3 13.095,5.547 5.038,4.6 10.493,7.187 17.327,6.186 6.532,-0.957 11.28,1.539 14.686,7.043 3.379,5.463 8.997,8.393 13.998,11.961 1.594,1.137 3.819,1.862 5.781,1.92 5.421,0.162 10.879,0.153 16.276,-0.317 5.406,-0.47 10.755,-1.581 16.13,-2.405 4.955,-0.759 9.489,-0.288 13.963,2.603 7.754,5.011 16.475,6.877 25.735,6.48 4.947,-0.213 9.594,0.981 13.941,3.614 7.493,4.54 15.98,6.191 24.431,7.92 3.452,0.707 6.98,1.47 10.181,2.874 4.729,2.075 9.472,3.554 14.667,3.268 8.723,-0.48 16.652,2.082 24.139,6.309 2.285,1.29 4.423,2.887 6.804,3.948 2.492,1.109 5.141,2.144 7.817,2.51 8.708,1.192 17.462,2.052 26.195,3.074 0.923,0.108 1.872,0.317 2.723,0.679 9.407,4.006 18.952,3.651 28.597,1.035 1.444,-0.392 2.938,-0.703 4.426,-0.807 9.617,-0.678 15.746,-6.551 20.358,-14.178 1.946,-3.217 4.251,-4.463 7.732,-4.36 8.219,0.245 16.428,-0.439 24.604,1.739 5.786,1.54 11.903,1.696 17.533,-1.492 0.957,-0.542 2.119,-0.752 3.209,-1.027 10.008,-2.523 15.663,-8.824 17.058,-19.119 0.95,-7.006 3.868,-13.175 8.299,-18.773 7.157,-9.042 11.137,-19.449 11.68,-30.994 0.221,-4.695 2.769,-8.352 5.352,-11.547 5.88,-7.274 7.07,-15.56 6.831,-24.313 -0.202,-7.391 0.23,-14.625 3.053,-21.559 0.353,-0.868 0.492,-1.849 0.965,-2.636 4.059,-6.745 7.188,-13.862 9.927,-21.265 1.168,-3.157 4.628,-5.825 7.622,-7.874 6.631,-4.54 10.339,-10.338 11.12,-18.463 0.302,-3.137 2.303,-6.285 4.103,-9.054 1.818,-2.796 2.591,-5.629 2.954,-8.894 1.06,-9.523 4.707,-18.029 11.159,-25.197 6.273,-6.969 12.553,-13.936 19.008,-20.736 3.993,-4.206 8.34,-8.073 12.481,-12.14 1.455,-1.43 3.043,-2.834 4.088,-4.545 1.843,-3.016 4.371,-4.353 7.814,-4.691 8.722,-0.857 12.223,-5.108 11.57,-13.727 -0.332,-4.369 0.282,-5.509 4.367,-7.43 4.071,-1.915 8.266,-3.577 12.284,-5.592 7.62,-3.821 12.292,-9.47 11.71,-18.642 -0.505,-7.96 3.809,-14.352 7.96,-20.556 1.661,-2.483 2.906,-4.671 2.456,-7.693 -0.471,-3.153 1.139,-4.828 4.11,-5.692 4.606,-1.339 8.206,-4.152 11.649,-7.529 4.802,-4.71 10.05,-9.001 15.376,-13.122 1.803,-1.396 4.492,-2.575 6.661,-2.401 7.68,0.615 13.894,-2.271 19.668,-6.826 2.914,-2.299 6.273,-3.256 9.992,-3.078 7.96,0.383 15.697,7.917 16.047,16.041 0.195,4.557 0.264,8.983 3.449,12.727 0.651,0.763 0.904,2.143 0.825,3.202 -0.351,4.713 2.249,7.66 5.598,10.391 3.482,2.84 6.774,5.917 10.126,8.916 2.853,2.553 3.742,5.784 3.837,9.578 0.153,6.166 0.654,12.331 1.237,18.475 0.413,4.35 2.14,8.062 4.957,11.65 5.302,6.753 9.394,14.491 14.944,21.007 5.034,5.911 5.699,12.264 5.2,19.348 -0.367,5.216 0.901,9.92 4.439,14.093 1.623,1.915 2.199,4.702 3.333,7.053 1.445,2.992 2.65,6.171 4.539,8.861 2.994,4.259 6.59,7.987 8.775,12.925 1.919,4.336 5.573,7.3 10.516,8.65 2.149,0.587 4.401,2.271 5.731,4.094 3.383,4.639 7.544,7.043 13.346,6.779 4.869,-0.222 9.765,0.051 14.624,-0.274 2.759,-0.184 5.492,-1.04 8.195,-1.751 8.123,-2.134 16.058,-5.017 24.797,-2.999 2.712,0.627 5.998,-0.086 8.747,-1.005 5.697,-1.905 10.16,-1.631 14.623,3.31 3.831,4.24 8.931,7.149 15.314,7.143 7.002,-0.007 13.701,1.445 19.449,6.061 3.391,2.725 7.465,4.136 11.84,4.86 6.396,1.057 12.109,3.946 17.382,7.619 7.069,4.924 11.483,4.999 18.44,0.181 2.151,-1.489 4.39,-2.922 6.76,-4.005 2.345,-1.07 3.934,-0.067 4.634,2.439 0.1,0.358 0.184,0.744 0.159,1.11 -0.439,6.644 3.115,11.571 6.443,16.912 4.233,6.793 7.478,14.224 10.858,21.515 1.823,3.933 4.507,6.461 8.766,6.937 3.563,0.398 6.398,2.048 8.953,4.332 4.189,3.744 8.47,7.405 12.426,11.386 4.63,4.659 9.886,7.318 16.576,6.775 1.678,-0.136 3.391,0.117 5.062,-0.061 5.953,-0.635 10.994,1.193 15.621,4.941 1.644,1.331 3.966,2.081 6.097,2.506 8.636,1.725 17.174,0.977 25.582,-1.549 6.628,-1.992 9.508,-0.318 10.098,6.774 0.744,8.951 4.014,17.093 7.388,25.171 2.512,6.017 5.962,11.639 8.863,17.501 1.486,3.004 2.357,6.347 4.072,9.196 4.438,7.373 9.053,14.648 13.851,21.792 5.314,7.913 10.9,15.644 16.387,23.441 2.932,4.165 6.254,7.876 10.644,10.67 5.907,3.762 10.942,8.579 14.751,14.484 3.709,5.751 9.045,8.936 15.522,10.21 6.127,1.205 11.825,3.316 17.419,6.075 2.752,1.357 6.096,1.717 9.223,2.054 2.965,0.319 5.997,-0.04 8.998,0.002 5.621,0.077 8.752,2.343 10.608,7.453 0.958,2.638 2.318,5.162 2.992,7.864 1.305,5.24 5.378,7.566 9.828,7.949 6.674,0.576 12.178,3.611 17.735,6.602 3.357,1.808 6.273,2.054 9.467,0.144 0.642,-0.384 1.288,-0.839 1.994,-1.027 6.293,-1.674 12.527,-3.732 18.927,-4.78 4.353,-0.713 7.634,-2.552 10.845,-5.309 2.655,-2.279 5.802,-3.976 8.668,-6.02 3.197,-2.279 6.325,-4.654 9.48,-6.992 9.04,-6.699 18.132,-13.349 24.598,-22.817 2.191,-3.207 5.514,-4.588 9.053,-5.13 4.496,-0.69 7.591,-3.108 9.808,-6.785 1.56,-2.589 3.906,-3.742 6.516,-4.993 10.951,-5.247 22.539,-9.539 31.505,-18.113 4.304,-4.115 8.164,-8.782 11.704,-13.583 3.229,-4.38 7.314,-6.166 12.501,-6.259 2.006,-0.035 4.008,-0.297 6.425,-0.489 V 81.93 c -4.766,-1.555 -9.593,-1.346 -14.298,-0.058 -7.107,1.945 -12.849,6.002 -17.035,12.164 -1.157,1.704 -2.371,3.386 -3.714,4.945 -4.038,4.695 -8.128,9.284 -14.065,11.811 -3.086,1.312 -5.814,3.454 -8.879,4.831 -3.558,1.598 -7.213,3.361 -10.999,3.97 -4.32,0.695 -7.445,2.54 -9.421,6.213 -2.036,3.785 -4.745,5.974 -9.252,6.192 -3.725,0.181 -7.02,2.203 -8.785,5.414 -5.619,10.231 -14.662,16.9 -23.744,23.54 -4.063,2.971 -8.385,5.586 -12.603,8.343 -0.941,0.616 -2.121,0.969 -2.878,1.748 -7.305,7.524 -17.438,8.058 -26.669,10.722 -2.209,0.638 -4.962,0.566 -7.155,-0.143 -4.796,-1.551 -9.403,-3.695 -14.066,-5.648 -2.374,-0.994 -3.954,-2.68 -4.67,-5.262 -0.495,-1.785 -1.346,-3.479 -2.105,-5.183 -3.428,-7.708 -9.274,-11.085 -17.799,-11.082 -8.677,0.004 -16.936,-2.642 -24.971,-5.9 -2.402,-0.973 -4.96,-1.795 -7.518,-2.104 -5.212,-0.63 -9.205,-3.177 -12.248,-7.21 -5.021,-6.653 -10.977,-12.285 -17.705,-17.163 -4.003,-2.902 -7.22,-6.462 -9.317,-11.042 -0.926,-2.023 -2.37,-3.817 -3.644,-5.67 C 103.066,94.556 95.307,83.968 88.322,72.89 84.869,67.414 82.898,61.013 80.126,55.093 79.021,52.733 77.507,50.568 76.273,48.265 74.159,44.317 72.938,40.021 71.394,35.866 67.824,26.265 68.72,15.207 61.871,6.744 60.761,0.187 56.144,-4.491 53.027,-9.984 c -1.443,-2.545 -2.408,-5.477 -3.014,-8.355 -0.877,-4.162 -2.415,-7.895 -5.363,-10.948 -4.339,-4.495 -7.978,-9.393 -10.262,-15.298 -0.865,-2.235 -2.613,-4.112 -3.737,-6.267 -1.982,-3.801 -3.835,-7.673 -5.651,-11.557 -0.47,-1.003 -0.308,-2.389 -0.938,-3.215 -4.372,-5.716 -7.261,-12.686 -13.944,-16.479 -1.423,-0.807 -2.834,-1.883 -3.82,-3.166 -4.045,-5.262 -8.76,-9.689 -14.452,-13.169 -5.823,-3.561 -8.852,-9.615 -12.19,-15.181 -2.671,-4.452 -5.971,-7.966 -10.014,-11.141 -5.881,-4.617 -11.667,-9.43 -16.97,-14.687 -5.815,-5.763 -12.985,-8.87 -20.361,-11.53 -9.504,-3.426 -19.278,-6.112 -28.106,-11.23 -0.948,-0.549 -2.125,-0.714 -3.208,-1.017 -5.595,-1.562 -10.911,-3.506 -15.953,-6.677 -6.503,-4.088 -13.043,-7.972 -19.033,-12.88 -3.541,-2.901 -8.269,-4.314 -12.331,-6.626 -6.019,-3.426 -11.866,-7.155 -17.904,-10.543 -2.081,-1.168 -4.473,-2.226 -6.8,-2.425 -8.287,-0.706 -14.599,-5.557 -21.247,-9.658 -5.573,-3.44 -10.858,-7.343 -16.394,-10.847 -1.694,-1.073 -3.739,-1.849 -5.72,-2.173 -9.739,-1.589 -18.012,-6.027 -25.322,-12.49 -0.698,-0.617 -1.412,-1.359 -2.255,-1.647 -9.517,-3.253 -16.841,-10.355 -25.766,-14.659 -1.943,-0.936 -3.943,-2.456 -5.075,-4.241 -3.385,-5.341 -6.603,-10.713 -7.629,-17.279 -0.738,-4.726 -2.738,-9.246 -7.458,-11.951 -3.116,-1.787 -5.684,-4.359 -6.631,-8.055 -0.693,-2.703 -2.306,-4.181 -5.123,-4.36 -4.773,-0.306 -9.113,-1.886 -13.281,-4.223 -4.361,-2.444 -9.221,-2.567 -14.137,-2.984 -10.107,-0.857 -18.915,1.42 -26.411,8.388 -0.801,0.745 -1.864,1.278 -2.889,1.703 -9.514,3.947 -17.25,10.378 -24.826,17.165 -2.553,2.287 -6.03,3.549 -9.108,5.237 -3.078,1.688 -6.511,2.913 -9.214,5.063 -6.436,5.118 -12.459,10.755 -18.815,15.978 -1.832,1.504 -4.129,2.637 -6.397,3.381 -7.516,2.465 -10.502,5.975 -11.346,13.504 -0.224,1.989 -0.863,4 -1.668,5.843 -2.028,4.638 -4.647,9.053 -6.288,13.813 -1.32,3.827 -1.861,8.005 -2.175,12.071 -0.239,3.095 -0.956,5.592 -3.906,6.846 -5.965,2.536 -11.407,6.157 -18.387,6.328 -8.588,0.212 -11.815,5.159 -9.916,13.613 0.914,4.067 0.639,5.078 -3.14,6.516 -3.915,1.49 -6.337,4.157 -8.686,7.53 -2.53,3.634 -6.115,6.532 -9.239,9.753 -2.864,2.953 -5.785,5.854 -8.576,8.875 -5.218,5.645 -10.107,11.62 -15.602,16.975 -5.634,5.49 -9.755,11.787 -12.298,19.127 -1.887,5.447 -4.687,10.57 -4.949,16.621 -0.102,2.341 -2.025,4.729 -3.477,6.851 -1.611,2.354 -3.479,4.579 -3.136,7.602 0.659,5.833 -2.578,9.45 -6.691,12.77 -2.756,2.225 -5.824,4.355 -7.791,7.194 -2.629,3.797 -4.792,8.081 -6.269,12.456 -1.093,3.238 -2.602,6.078 -4.187,9.047 -4.898,9.173 -8.039,18.944 -8.207,29.482 -0.036,2.251 -0.093,4.513 0.079,6.752 0.39,5.069 -0.943,9.443 -3.84,13.732 -4.846,7.171 -8.417,14.823 -8.717,23.906 -0.224,6.824 -3.064,13.223 -7.472,18.489 -6.207,7.415 -10.061,15.807 -11.523,25.247 -0.726,4.687 -3.306,7.426 -7.41,9.025 -5.133,2 -10.331,2.444 -15.958,2.014 -10.809,-0.827 -21.697,-0.785 -32.551,-0.753 -5.827,0.017 -9.809,3.739 -12.431,8.504 -3.486,6.334 -8.603,9.094 -15.671,10.264 -8.95,1.483 -17.217,1.018 -25.939,-1.878 -6.8,-2.257 -14.392,-2.362 -21.67,-2.854 -4.481,-0.303 -8.616,-1.369 -12.182,-3.799 -6.816,-4.642 -14.57,-6.869 -22.293,-9.036 -3.514,-0.986 -7.438,-0.636 -11.178,-0.658 -3.632,-0.022 -6.903,-0.849 -10.277,-2.33 -3.889,-1.707 -8.156,-2.775 -12.366,-3.476 -7.843,-1.305 -15.278,-3.565 -22.298,-7.34 -5.864,-3.154 -12.054,-4.874 -18.898,-4.43 -7.092,0.461 -13.786,-1.424 -19.714,-5.442 -3.578,-2.425 -7.497,-3.58 -11.698,-3.315 -8.034,0.507 -16.051,1.293 -24.073,1.985 -1.864,0.162 -3.729,0.354 -5.578,0.638 -7.981,1.227 -13.598,-2.689 -18.59,-8.266 -2.861,-3.197 -6.001,-6.144 -9.037,-9.183 -2.564,-2.566 -5.772,-3.334 -9.281,-3.256 -1.688,0.036 -3.39,-0.131 -5.063,0.027 -4.146,0.394 -7.611,-0.772 -10.852,-3.491 -2.853,-2.394 -5.996,-4.636 -9.365,-6.161 -2.977,-1.348 -6.46,-2.294 -9.691,-2.218 -6.892,0.163 -12.425,-1.895 -16.871,-7.242 -2.956,-3.555 -7.015,-5.082 -11.475,-6.507 -5.418,-1.731 -10.225,-5.292 -15.437,-7.766 -7.513,-3.567 -11.989,-9.728 -15.542,-16.91 -2.108,-4.264 -5.534,-7.281 -10.494,-7.412 -5.783,-0.153 -8.863,-3.722 -11.016,-8.251 -3.46,-7.279 -9.775,-11.856 -15.688,-16.632 -4.305,-3.477 -9.627,-5.699 -14.513,-8.449 -4.631,-2.607 -7.836,-6.525 -9.42,-11.464 -2.095,-6.528 -6.266,-11.434 -11.112,-15.95 -1.232,-1.148 -2.492,-2.266 -3.759,-3.376 -4.272,-3.745 -4.884,-8.479 -2.745,-13.305 1.9,-4.286 2.461,-8.563 2.255,-13.127 -0.083,-1.849 0.208,-3.75 0.573,-5.578 1.579,-7.907 0.552,-15.298 -4.157,-21.99 -2.155,-3.063 -4.129,-6.31 -6.648,-9.047 -4.974,-5.404 -7.278,-11.728 -7.292,-18.916 -0.01,-3.29 -0.972,-5.832 -3.784,-7.636 -0.941,-0.603 -1.722,-1.45 -2.624,-2.121 -3.113,-2.311 -4.516,-5.293 -4.216,-9.243 0.269,-3.548 0.24,-7.128 0.166,-10.69 -0.138,-6.746 -3.534,-10.949 -10.193,-12.122 -3.291,-0.579 -6.719,-0.561 -10.081,-0.512 -4.404,0.065 -7.513,-1.525 -9.405,-5.68 -2.092,-4.598 -4.602,-9.004 -6.744,-13.581 -1.421,-3.04 -3.399,-5.413 -6.574,-6.548 -4.775,-1.708 -8.358,-4.85 -11.349,-8.838 -2.808,-3.746 -5.566,-7.55 -8.65,-11.063 -1.82,-2.074 -4.016,-4.017 -6.418,-5.339 -4.586,-2.523 -9.495,-4.452 -14.159,-6.843 -2.457,-1.261 -5.063,-2.611 -6.935,-4.56 -5.501,-5.727 -11.817,-10.32 -18.275,-14.864 -4.078,-2.869 -7.956,-6.336 -11.033,-10.238 -4.26,-5.405 -9.171,-9.044 -15.922,-10.739 -4.103,-1.028 -7.867,-3.384 -11.81,-5.08 -1.109,-0.477 -2.313,-0.734 -3.77,-1.183"
             style="fill:#ffffff;fill-opacity:1;fill-rule:nonzero;stroke:none"
             id="path854"
             inkscape:connector-curvature="0" /></g><g
           id="g856"
           transform="translate(995.5659,715.7969)"
           style="fill:#ffffff"><path
             d="m 0,0 c 0,2.971 0.382,7.141 -0.098,11.208 -0.589,4.993 -1.178,10.195 -3.05,14.783 -3.699,9.062 -10.981,14.322 -20.439,16.901 -9.353,2.549 -18.909,2.47 -28.442,3.177 -12.868,0.954 -24.483,-2.785 -35.664,-8.373 -12.259,-6.126 -23.827,-13.453 -34.733,-21.745 -35.83,-27.237 -68.446,-57.819 -96.165,-93.401 -11.879,-15.249 -22.808,-31.11 -29.136,-49.641 -2.812,-8.237 -3.283,-16.572 -0.244,-24.798 3.621,-9.799 10.406,-17.194 18.611,-23.451 8.115,-6.189 17.051,-10.937 26.483,-14.622 7.307,-2.855 14.797,-5.562 22.453,-7.142 21.477,-4.428 42.833,-3.231 64.024,2.511 17.292,4.687 32.795,12.684 46.568,24.033 25.764,21.229 42.109,48.892 53.638,79.678 3.207,8.564 5.847,17.404 7.91,26.313 2.489,10.739 4.53,21.628 5.939,32.558 C -1.029,-21.801 -0.792,-11.451 0,0 m -153.027,-240.931 c -22.358,-0.286 -44.667,0.619 -66.702,4.547 -16.121,2.873 -31.8,7.395 -45.189,17.494 -11.505,8.678 -19.823,19.521 -24.233,33.547 -2.704,8.599 -3.354,17.203 -3.654,26.034 -0.52,15.309 1.232,30.358 5.106,45.109 4.881,18.577 12.735,35.871 23.023,52.143 16.005,25.32 36.352,46.694 59.157,65.817 16.084,13.487 32.559,26.51 48.867,39.73 19.674,15.952 38.258,33.141 56.934,50.225 7.627,6.975 15.537,13.544 24.886,18.169 15.1,7.47 30.775,8.896 47.019,4.622 20.292,-5.341 34.901,-18.249 46.59,-35.029 7.847,-11.264 13.948,-23.409 19.106,-36.14 6.641,-16.394 11.462,-33.211 14.708,-50.593 3.956,-21.185 5.054,-42.447 2.54,-63.803 -1.316,-11.176 -4.556,-22.017 -8.761,-32.475 -14.892,-37.029 -40.002,-66.51 -69.086,-93.013 -12.38,-11.28 -25.864,-21.03 -40.527,-29.157 -14.912,-8.266 -30.882,-13.487 -47.623,-16.231 -5.883,-0.963 -11.965,-0.849 -17.961,-0.959 -8.064,-0.148 -16.133,-0.037 -24.2,-0.037"
             style="fill:#ffffff;fill-opacity:1;fill-rule:nonzero;stroke:none"
             id="path858"
             inkscape:connector-curvature="0" /></g><g
           id="g860"
           transform="translate(1399.4937,510.1162)"
           style="fill:#ffffff"><path
             d="m 0,0 c 8.846,0.121 17.455,1.222 25.976,4.039 17.254,5.703 31.764,15.252 42.731,29.678 9.177,12.073 17.692,24.65 26.503,37.001 6.96,9.755 13.306,19.962 21.801,28.564 5.757,5.829 12.141,10.801 19.967,13.215 5.415,1.671 8.241,4.77 8.983,10.19 0.228,1.666 0.781,3.286 1.084,4.944 1.655,9.041 -1.745,13.9 -10.709,15.683 -14.484,2.88 -28.947,1.061 -43.053,-1.62 C 78.105,138.81 64.295,131.925 51.77,122.577 26.944,104.049 5.497,82.104 -13.716,57.952 -20.946,48.863 -26.657,38.808 -30.564,27.658 -34.037,17.751 -28.837,8.218 -20.204,3.746 -13.723,0.39 -6.986,-0.114 0,0 m -67.409,9.936 c 0.817,20.407 4.449,37.078 12.113,52.86 10.44,21.496 25.713,38.968 43.959,54.113 19.152,15.898 40.46,28.354 62.466,39.745 14.987,7.758 30.203,15.064 46.089,20.735 8.427,3.007 17.099,5.649 26.222,6.022 9.293,0.379 17.308,-2.698 24.207,-8.793 8.482,-7.494 14.685,-16.675 17.878,-27.449 2.821,-9.518 1.743,-19.378 -0.256,-28.989 -2.479,-11.927 -5.923,-23.627 -10.427,-34.932 -3.597,-9.027 -8.051,-17.71 -12.015,-26.594 -5.257,-11.785 -10.415,-23.613 -15.587,-35.436 -0.371,-0.849 -0.676,-1.792 -0.723,-2.707 -0.444,-8.635 -0.612,-17.224 3.005,-25.411 1.295,-2.93 3.265,-5.14 6.092,-6.312 5.182,-2.149 10.452,-4.119 15.779,-5.879 3.001,-0.991 4.844,0.482 4.386,3.8 -1.199,8.689 2.299,16.388 5.555,23.77 6.259,14.183 13.384,28.003 20.607,41.735 4.787,9.1 10.34,17.801 15.602,26.648 6.699,11.261 13.459,22.485 20.176,33.734 9.406,15.754 18.97,31.416 28.147,47.302 9.926,17.182 20.043,34.293 29.022,51.971 6.929,13.641 12.473,28.012 18.137,42.256 2.334,5.867 3.095,12.34 5.058,18.379 3.278,10.09 4.479,20.889 10.389,30.1 3.712,5.785 8.358,10.605 14.03,14.388 4.551,3.034 9.379,2.466 13.841,-0.168 7.21,-4.254 11.923,-10.679 14.956,-18.401 0.069,-0.173 0.071,-0.375 0.15,-0.541 3.573,-7.549 1.61,-14.374 -2.116,-21.356 -8.197,-15.352 -15.875,-30.981 -23.997,-46.374 -7.767,-14.723 -15.906,-29.251 -23.739,-43.94 -7.836,-14.695 -15.444,-29.511 -23.248,-44.223 -5.347,-10.081 -10.908,-20.048 -16.28,-30.115 -5.286,-9.905 -10.487,-19.856 -15.664,-29.819 -5.693,-10.956 -11.437,-21.888 -16.925,-32.947 -4.072,-8.206 -8.267,-16.409 -11.501,-24.957 -3.303,-8.729 -5.515,-17.872 -8.175,-26.842 -2.334,-7.872 -6.081,-14.907 -12.215,-20.489 -3.975,-3.617 -8.379,-6.096 -14.083,-6.053 -5.556,0.042 -6.224,-0.639 -6.429,-6.06 -0.132,-3.504 -1.841,-5.405 -4.621,-7.069 -2.852,-1.707 -5.772,-3.502 -8.124,-5.807 -9.91,-9.705 -21.955,-10.152 -33.706,-4.214 -11.827,5.978 -20.556,15.674 -28.181,26.207 -5.804,8.017 -10.892,16.562 -16.112,24.988 C 83.312,1.689 81.497,2.149 76.312,-0.233 59.468,-7.976 42.739,-16.029 25.561,-22.961 11.489,-28.64 -3.31,-32.323 -18.508,-33.825 c -11.093,-1.097 -21.811,0.7 -31.404,6.422 -8.4,5.01 -13.652,12.665 -15.26,22.505 -0.962,5.889 -1.783,11.801 -2.237,14.834"
             style="fill:#ffffff;fill-opacity:1;fill-rule:nonzero;stroke:none"
             id="path862"
             inkscape:connector-curvature="0" /></g><g
           id="g864"
           transform="translate(1935.2646,465.6982)"
           style="fill:#ffffff"><path
             d="m 0,0 c -24.133,-0.028 -45.388,9.834 -63.757,26.707 -9.892,9.086 -18.175,19.452 -24.172,31.489 -1.988,3.992 -3.703,8.282 -4.584,12.629 -1.934,9.554 -3.32,19.192 -1.691,29.036 1.18,7.133 5.804,9.741 11.812,5.86 3.914,-2.529 7.659,-5.432 11.067,-8.609 10.901,-10.161 19.106,-22.555 28.09,-34.319 4.99,-6.536 10.442,-12.77 16.141,-18.701 7.095,-7.383 15.621,-10.944 26.321,-9.731 13.308,1.51 26.201,4.44 38.83,8.723 16.696,5.663 32.981,12.33 48.538,20.658 9.117,4.88 17.705,10.523 24.991,18.014 3.739,3.845 6.471,8.262 8.46,13.143 1.49,3.657 1.238,7.336 -0.896,10.792 -2.504,4.057 -5.746,7.253 -9.863,9.776 -8.471,5.187 -17.943,7.502 -27.342,10.034 -17.37,4.68 -34.799,9.139 -52.159,13.855 -9.753,2.651 -19.473,5.452 -29.101,8.52 -9.692,3.089 -18.788,7.482 -26.748,13.958 -1.162,0.943 -2.315,1.923 -3.325,3.02 -3.728,4.052 -4.038,8.143 0.051,11.843 5.395,4.884 11.051,9.623 17.158,13.548 14.38,9.239 29.828,16.469 45.828,22.464 15.076,5.649 30.099,11.474 45.363,16.571 16.88,5.638 34.036,10.442 51.015,15.787 13.924,4.385 27.776,8.999 41.635,13.584 4.087,1.353 8.001,1.532 12.04,-0.26 2.545,-1.13 5.268,-1.91 7.967,-2.633 4.383,-1.175 5.823,-3.08 5.513,-7.684 -0.409,-6.054 -3.397,-11.049 -6.723,-15.829 -5.075,-7.292 -12.087,-12.346 -20.176,-15.653 -6.556,-2.681 -13.363,-4.846 -20.2,-6.726 -11.015,-3.028 -22.172,-5.537 -33.222,-8.443 -12.504,-3.288 -25.059,-6.444 -37.393,-10.295 -7.47,-2.332 -14.573,-5.847 -21.82,-8.884 -2.411,-1.012 -4.934,-1.929 -7.053,-3.399 -1.176,-0.816 -2.395,-2.827 -2.17,-4.035 0.204,-1.095 2.22,-2.268 3.641,-2.657 11.92,-3.257 23.947,-6.132 35.82,-9.546 8.809,-2.532 17.568,-5.352 26.114,-8.656 13.157,-5.085 25.551,-11.623 36.078,-21.271 13.181,-12.081 16.492,-26.585 11.155,-43.464 C 156.595,74.545 147.276,63.287 135.813,53.559 121.434,41.354 105.342,31.888 88.34,23.812 75.461,17.693 62.336,12.256 48.726,8.03 33.25,3.226 17.464,0.145 0,0"
             style="fill:#ffffff;fill-opacity:1;fill-rule:nonzero;stroke:none"
             id="path866"
             inkscape:connector-curvature="0" /></g><g
           id="g868"
           transform="translate(1056.9404,497.3848)"
           style="fill:#ffffff"><path
             d="m 0,0 c 0.581,6.605 3.328,12.782 8.674,17.735 6.124,5.675 13.256,9.867 20.752,13.309 13.446,6.175 27.105,11.884 40.609,17.934 10.758,4.819 21.517,9.658 32.083,14.878 5.565,2.75 10.275,6.799 13.88,12.038 1.911,2.777 2.101,5.449 0.78,8.462 -3.866,8.822 -8.82,17.011 -15.279,24.11 -11.48,12.616 -23.241,24.977 -34.955,37.379 -8.628,9.134 -17.396,18.137 -26.034,27.262 -1.535,1.622 -2.764,3.539 -4.093,5.351 -2.34,3.188 -2.442,6.75 -0.954,10.165 2.749,6.312 6.83,11.673 12.855,15.23 6.766,3.994 13.672,3.61 20.316,-0.238 9.252,-5.359 16.374,-13.166 22.845,-21.443 14.658,-18.751 28.851,-37.865 43.529,-56.6 5.995,-7.653 12.743,-14.718 19.178,-22.026 3.32,-3.772 7.415,-4.624 12.251,-3.482 10.029,2.369 18.971,7.156 27.26,12.931 17.213,11.992 34.091,24.464 51.093,36.759 3.341,2.416 6.564,4.999 9.938,7.365 5.727,4.018 12.233,2.691 16.023,-2.986 5.162,-7.731 4.582,-15.589 0.552,-23.434 -4.962,-9.658 -12.861,-16.565 -22.055,-21.91 -14.732,-8.562 -29.735,-16.658 -44.479,-25.201 -6.893,-3.995 -12.819,-9.248 -16.139,-16.73 -1.107,-2.494 -1.812,-5.342 -1.936,-8.064 -0.407,-8.937 1.806,-17.477 4.615,-25.879 3.316,-9.924 6.844,-19.784 9.871,-29.796 2.924,-9.67 5.226,-19.527 7.995,-29.247 1.964,-6.893 0.153,-13.484 -1.631,-19.92 -1.566,-5.654 -6.503,-6.476 -9.858,-1.693 -3.849,5.487 -7.081,11.431 -10.302,17.329 -8.877,16.255 -17.278,32.779 -26.529,48.815 -5.138,8.908 -11.538,17.003 -20.925,22.273 -6.154,3.454 -12.147,3.085 -18.415,1.014 C 108.764,37.478 97.409,30.563 86.17,23.424 71.468,14.082 56.767,4.74 42.063,-4.598 c -4.269,-2.711 -8.627,-5.291 -12.79,-8.156 -3.226,-2.221 -6.595,-2.516 -10.19,-1.551 -4.163,1.117 -8.34,2.215 -12.429,3.567 C 2.608,-9.401 0.042,-5.264 0,0"
             style="fill:#ffffff;fill-opacity:1;fill-rule:nonzero;stroke:none"
             id="path870"
             inkscape:connector-curvature="0" /></g><g
           id="g872"
           transform="translate(1729.3887,496.9492)"
           style="fill:#ffffff"><path
             d="m 0,0 c -1.973,0 -3.479,-0.087 -4.971,0.017 -5.249,0.36 -7.695,2.753 -8.363,8.037 -0.469,3.718 -0.914,7.44 -1.453,11.148 -1.552,10.673 1.152,20.434 6.315,29.66 4.476,7.997 9.331,15.802 13.403,23.997 2.64,5.316 4.237,11.158 6.19,16.802 4.399,12.71 8.027,25.714 14.405,37.664 4.904,9.187 11.314,17.214 19.107,24.088 5.288,4.666 8.093,4.497 13.012,-0.471 5.031,-5.082 9.437,-10.561 12.362,-17.249 1.855,-4.239 2.207,-8.256 0.795,-12.53 C 66.225,107.312 61.913,93.363 56.957,79.648 51.813,65.413 46.045,51.403 40.535,37.3 38.156,31.21 35.987,25.022 33.293,19.074 28.062,7.524 19.307,0.812 6.265,0.423 4.018,0.355 1.775,0.124 0,0"
             style="fill:#ffffff;fill-opacity:1;fill-rule:nonzero;stroke:none"
             id="path874"
             inkscape:connector-curvature="0" /></g><g
           id="g876"
           transform="translate(1818.002,732.3115)"
           style="fill:#ffffff"><path
             d="m 0,0 c -3.44,0.184 -5.692,0.205 -7.923,0.439 -12.659,1.33 -20.881,10.213 -20.56,22.991 0.134,5.361 1.172,10.815 2.605,16.006 2.931,10.617 6.953,20.902 9.203,31.754 1.208,5.825 6.932,7.347 11.112,2.895 C -1.515,69.773 2.069,64.841 4.975,59.684 9.407,51.815 14.064,44.283 20.701,38.006 24.707,34.216 27.07,29.537 27.226,23.621 27.525,12.164 20.726,3.562 9.4,1.128 5.948,0.387 2.362,0.27 0,0"
             style="fill:#ffffff;fill-opacity:1;fill-rule:nonzero;stroke:none"
             id="path878"
             inkscape:connector-curvature="0" /></g></g></g></g></svg>