<svg width="89" height="51" viewBox="0 0 89 51" fill="none" xmlns="http://www.w3.org/2000/svg">
<path d="M10.9906 37.5694L7.28106 48.0524L3.93941 38.7683C3.83575 38.4398 3.63605 38.15 3.36613 37.9363C3.0962 37.7225 2.76846 37.5948 2.42524 37.5694H0L0.0791317 37.7835C0.391402 37.8041 0.690077 37.9191 0.935634 38.1133C1.18119 38.3075 1.36205 38.5717 1.45429 38.8711L5.8086 50.9886H7.6179L12.3593 37.5684H10.9906V37.5694Z" fill="#2A398C"/>
<path d="M16.3784 49.517C16.3784 49.0631 16.3784 37.7549 16.3784 37.7549H14.0152V49.5245C14.0152 49.5245 13.9628 50.9889 15.2139 50.9889H17.0435V50.8133C17.0435 50.8133 16.3784 50.6881 16.3784 49.517Z" fill="#2A398C"/>
<path d="M30.3396 49.4781V37.8102L30.3482 37.7502H29.0511H29.0404V47.5641L21.9828 37.7577H18.6069L18.6305 37.898C18.8908 38.1141 19.0935 38.3916 19.2204 38.7054C19.3473 39.0193 19.3945 39.3597 19.3576 39.6963V50.6149C19.3576 50.6331 19.3662 50.6503 19.3662 50.6674V50.7744C19.3662 50.7948 19.3576 50.8183 19.3576 50.844V50.9939H20.6697V50.9692V39.8494L28.7014 50.9896H31.07L31.0571 50.8194C30.8172 50.6934 30.6205 50.4982 30.4926 50.259C30.3647 50.0199 30.3114 49.7479 30.3396 49.4781Z" fill="#2A398C"/>
<path d="M36.7112 37.7549H31.9677L31.9858 37.8951C31.9858 37.8951 32.6531 38.122 32.7269 39.6164V49.5245C32.7269 49.5245 32.7023 50.9889 33.916 50.9889H35.8547V50.8272C35.6153 50.7084 35.4165 50.5212 35.2833 50.2894C35.1501 50.0575 35.0884 49.7914 35.1061 49.5245V44.7995H37.1058C37.5741 44.806 41.4975 44.9344 41.4975 41.4019C41.4975 37.9336 38.2158 37.7549 36.7101 37.7549H36.7112ZM36.5946 43.6895C35.8835 43.6895 35.1051 43.6895 35.1051 43.6895V38.8831H36.6631C38.0254 38.8831 39.1225 39.2246 39.1225 41.3987C39.1225 43.5 37.4597 43.6895 36.5904 43.6895" fill="#2A398C"/>
<path d="M50.9059 49.6166H45.8928V44.9227H51.1411L51.155 44.8552V43.6135L51.1411 43.5439H45.8928V39.1283H50.1584C51.139 39.1283 51.4416 39.458 51.5282 39.6935H51.7357L51.494 38.3019C51.3657 38.1128 51.1885 37.962 50.9814 37.8657C50.7742 37.7694 50.5449 37.7311 50.3177 37.7549H42.749L42.7704 37.8952C42.7704 37.8952 43.4719 38.1328 43.5104 39.7545V50.9889H51.0117C51.3482 50.9968 51.6772 50.8883 51.9431 50.6817L52.1463 49.0407H51.9795C51.8201 49.6573 51.0107 49.6166 50.9048 49.6166" fill="#2A398C"/>
<path d="M64.9413 49.5178L61.6777 39.265L61.7408 39.4619C61.4574 38.5799 61.2756 38.0222 61.5109 37.7599L61.4895 37.6133H58.2505L56.0829 44.2094C55.0446 44.2704 54.0192 43.9538 53.1958 43.3177L53.168 43.4986C53.1541 43.4901 53.7711 44.7061 53.7989 44.7307C54.3789 45.1423 55.0514 45.4045 55.7568 45.4939L54.0117 50.9886L54.0576 50.9832H55.4702L57.2335 45.5849H59.9881C60.3175 45.5559 60.6467 45.6431 60.9187 45.8313C61.1907 46.0196 61.3885 46.297 61.4777 46.6158L62.4283 49.5167C62.4283 49.5167 62.8208 50.9832 63.858 50.9832H65.7176L65.7101 50.8526C65.2728 50.6385 64.9616 49.6141 64.937 49.5167L64.9413 49.5178ZM59.9112 44.2137H57.5404L59.169 39.205L60.8992 44.4C60.5986 44.2448 60.2595 44.1801 59.9229 44.2137" fill="#2A398C"/>
<path d="M76.4047 47.7536C75.9885 46.9651 75.5197 46.2055 75.0018 45.48C74.6709 45.0598 74.257 44.7125 73.7859 44.4598C74.3638 44.2953 74.8866 43.9777 75.2992 43.5406C75.7118 43.1035 75.9989 42.5631 76.1303 41.9762C76.2616 41.3894 76.2324 40.778 76.0457 40.2064C75.8589 39.6348 75.5215 39.1243 75.0691 38.7286C74.2049 38.0412 73.1196 37.6937 72.0173 37.7513H66.6514L66.6749 37.8915C66.6749 37.8915 67.3422 38.1217 67.4095 39.6267V40.011C67.4095 40.0699 67.4202 40.1309 67.4202 40.1919V48.5093C67.4202 48.5671 67.4095 48.626 67.4095 48.6849V50.9896H69.777V45.1909H70.8581C72.2023 45.1909 72.7391 46.1543 73.8159 48.048C74.2139 48.767 74.6479 49.4654 75.1162 50.1407C75.2829 50.4178 75.5228 50.6436 75.8093 50.7931C76.0959 50.9427 76.4181 51.0103 76.7405 50.9885H78.7166V50.9831L78.7241 50.829C78.0215 50.6427 77.3928 49.4834 76.4004 47.7525L76.4047 47.7536ZM71.6687 43.7844H69.7727V38.8603H71.4441C71.7678 38.8314 72.0939 38.8733 72.3998 38.9829C72.7058 39.0925 72.9843 39.2673 73.2162 39.4951C73.4481 39.723 73.6279 39.9986 73.743 40.3027C73.8582 40.6069 73.906 40.9325 73.8832 41.257C73.9135 41.5702 73.8793 41.8862 73.7828 42.1856C73.6863 42.485 73.5294 42.7615 73.322 42.9978C73.1146 43.2342 72.8609 43.4254 72.5767 43.5598C72.2925 43.6942 71.9838 43.7688 71.6697 43.779" fill="#2A398C"/>
<path d="M88.9733 49.6166H82.8268L82.8054 49.6048V40.218C82.8054 40.111 82.8161 40.5852 82.8161 39.3252C82.8161 37.7924 81.6195 37.7549 81.6195 37.7549H79.6862L79.7097 37.8951C79.7097 37.8951 80.3513 38.1092 80.4411 39.5329V39.9354C80.4411 39.9739 80.4486 40.0146 80.4486 40.0499V48.3995C80.4486 48.4391 80.4411 48.4744 80.4411 48.5161V50.9889H88.8257L89 49.608L88.9733 49.6166Z" fill="#2A398C"/>
<path d="M60.9592 0.00273171C51.8453 1.08616 42.5282 4.06081 41.9104 13.0639C41.6237 17.2748 42.9317 20.4378 44.4066 23.4916C40.7026 19.8783 35.3539 16.9801 27.8568 17.6869C32.4235 18.9696 37.814 21.423 40.7109 24.6651C41.3232 25.3555 42.2193 26.5509 42.0078 27.5661C41.6571 29.2772 38.4763 28.9279 36.5505 29.0206C40.544 30.6062 45.0077 33.4635 50.7015 33.2779C53.5484 33.1879 55.6383 31.474 55.4185 28.2947C55.0177 22.5828 50.7739 17.7006 50.3286 11.2464C49.8332 3.9653 54.9955 1.29356 60.7811 0.0982415C60.898 0.133719 61.0816 0.0982542 61.1289 0.0600476C61.1679 0.0327572 61.1317 0 60.9731 0H60.9592V0.00273171Z" fill="url(#paint0_linear_16044_109749)"/>
<defs>
<linearGradient id="paint0_linear_16044_109749" x1="44.5001" y1="0" x2="44.5001" y2="33.2866" gradientUnits="userSpaceOnUse">
<stop stop-color="#CF873C"/>
<stop offset="1" stop-color="#F2A842"/>
</linearGradient>
</defs>
</svg>
